#VRML V2.0 utf8

Inline{url"/assets/no_cache/cafe/temp.wrl"}

EXTERNPROTO SharedObject [
exposedField SFVec3f translation
exposedField SFRotation rotation
exposedField MFNode children
exposedField SFString name
exposedField SFString id
eventIn SFBool startMove
eventOut SFTime touchTime
eventOut SFBool isOver
eventOut SFVec3f newPosition
eventOut SFRotation newRotation
] "/externprotos/shared_xite.wrl#SharedObject"
# Extern- and protos for Shared Animations
PROTO BlaxxunZone [ 
eventIn         MFNode   addEvents 
eventIn         MFNode   removeEvents 
eventIn         MFNode   addAvatars 
eventIn         MFNode   removeAvatars 
exposedField    MFNode   events NULL
exposedField    MFNode   avatars NULL
]
{
Transform {
addChildren IS addEvents
removeChildren IS removeEvents
children IS events
}
Transform {
        addChildren IS addAvatars
        removeChildren IS removeAvatars
        children IS avatars
}
}
        
PROTO SharedEvent [ 
exposedField SFString   name    "event" 
exposedField SFString   type    "SFTime"
eventIn SFBool  boolFromServer 
eventIn SFColor colorFromServer 
eventIn SFFloat floatFromServer 
eventIn SFInt32 int32FromServer 
eventIn SFRotation      rotationFromServer 
eventIn SFString        stringFromServer 
eventIn SFTime  timeFromServer 
eventIn SFVec2f vec2fFromServer 
eventIn SFVec3f vec3fFromServer 
eventOut        SFBool  boolToServer 
eventOut        SFColor colorToServer 
eventOut        SFFloat floatToServer 
eventOut        SFInt32 int32ToServer 
eventOut        SFRotation      rotationToServer 
eventOut        SFString        stringToServer 
eventOut        SFTime  timeToServer 
eventOut        SFVec2f vec2fToServer 
eventOut        SFVec3f vec3fToServer 
eventIn SFBool  set_bool 
eventIn SFColor set_color 
eventIn SFFloat set_float 
eventIn SFInt32 set_int32 
eventIn SFRotation      set_rotation 
eventIn SFString        set_string 
eventIn SFTime  set_time 
eventIn SFVec2f set_vec2f 
eventIn SFVec3f set_vec3f 
eventOut        SFBool  bool_changed 
eventOut        SFColor color_changed 
eventOut        SFFloat float_changed 
eventOut        SFInt32 int32_changed 
eventOut        SFRotation      rotation_changed 
eventOut        SFString        string_changed 
eventOut        SFTime  time_changed 
eventOut        SFVec2f vec2f_changed 
eventOut        SFVec3f vec3f_changed 
]
{
Script {
##eventIn       SFString        set_name IS set_name
##eventIn       SFString        set_type IS set_type
##eventOut      SFString        name_changed IS name_changed
##eventOut      SFString        type_changed IS type_changed
eventIn SFBool  boolFromServer  IS      boolFromServer
eventIn SFColor colorFromServer         IS      colorFromServer
eventIn SFFloat floatFromServer         IS      floatFromServer
eventIn SFInt32 int32FromServer         IS      int32FromServer
eventIn SFRotation      rotationFromServer      IS      rotationFromServer
eventIn SFString        stringFromServer        IS      stringFromServer
eventIn SFTime  timeFromServer  IS      timeFromServer
eventIn SFVec2f vec2fFromServer         IS      vec2fFromServer
eventIn SFVec3f vec3fFromServer         IS      vec3fFromServer
eventOut        SFBool  boolToServer    IS      boolToServer
eventOut        SFColor colorToServer   IS      colorToServer
eventOut        SFFloat floatToServer   IS      floatToServer
eventOut        SFInt32 int32ToServer   IS      int32ToServer
eventOut        SFRotation      rotationToServer        IS      rotationToServer
eventOut        SFString        stringToServer  IS      stringToServer
eventOut        SFTime  timeToServer    IS      timeToServer
eventOut        SFVec2f vec2fToServer   IS      vec2fToServer
eventOut        SFVec3f vec3fToServer   IS      vec3fToServer
eventIn SFBool  set_bool        IS      set_bool
eventIn SFColor set_color       IS      set_color
eventIn SFFloat set_float       IS      set_float
eventIn SFInt32 set_int32       IS      set_int32
eventIn SFRotation      set_rotation    IS      set_rotation
eventIn SFString        set_string      IS      set_string
eventIn SFTime  set_time        IS      set_time
eventIn SFVec2f set_vec2f       IS      set_vec2f
eventIn SFVec3f set_vec3f       IS      set_vec3f
eventOut        SFBool  bool_changed    IS      bool_changed
eventOut        SFColor color_changed   IS      color_changed
eventOut        SFFloat float_changed   IS      float_changed
eventOut        SFInt32 int32_changed   IS      int32_changed
eventOut        SFRotation      rotation_changed        IS      rotation_changed
eventOut        SFString        string_changed  IS      string_changed
eventOut        SFTime  time_changed    IS      time_changed
eventOut        SFVec2f vec2f_changed   IS      vec2f_changed
eventOut        SFVec3f vec3f_changed   IS      vec3f_changed
url "vrmlscript:
function set_name(value, time) { name_changed = value; }
function set_type(value, time) { type_changed = value; }
function boolFromServer (value, time) { bool_changed = value; }
function colorFromServer (value, time) { color_changed = value; }
function floatFromServer (value, time) { float_changed = value; }
function int32FromServer (value, time) { int32_changed = value; }
function rotationFromServer (value, time) {rotation_changed = value; }
function stringFromServer (value, time) { string_changed = value; }
function timeFromServer (value, time) { time_changed = time; }
function vec2fFromServer (value, time) { vec2f_changed = value; }
function vec3fFromServer (value, time) { vec3f_changed = value; }
function set_bool (value, time) { boolToServer = value; }
function set_color (value, time) { colorToServer = value; }
function set_float (value, time) { floatToServer = value; }
function set_int32 (value, time) { int32ToServer = value; }
function set_rotation (value, time) { rotationToServer = value; }
function set_string (value, time) { stringToServer = value; }
function set_time (value, time) { timeToServer = value; }
function set_vec2f (value, time) { vec2fToServer = value; }
function set_vec3f (value, time) { vec3fToServer = value; }
"
}
}



DEF SharedZone BlaxxunZone {
events [
DEF SharedTimerFRL SharedEvent { name "tfrl" }
DEF SharedTimerFRR SharedEvent { name "tfrr" }
DEF SharedTimerFBL SharedEvent { name "tfbl" }
DEF SharedTimerFBR SharedEvent { name "tfbr" }
DEF SharedTranslationFRL SharedEvent { name "frl" }
DEF SharedTranslationFRR SharedEvent { name "frr" }
DEF SharedTranslationFBL SharedEvent { name "fbl" }
DEF SharedTranslationFBR SharedEvent { name "fbr" }
DEF SharedTranslationGR SharedEvent { name "gr" }
DEF SharedTranslationGL SharedEvent { name "gl" }
DEF SharedScore SharedEvent { name "newscore" }
DEF NewScoreBack SharedEvent { name "getnewscore" }
DEF VrmlLoaded SharedEvent { name "deliverscore" }
DEF Taste0 SharedEvent { name "taste0" }
DEF Taste1 SharedEvent { name "taste1" }
DEF Taste2 SharedEvent { name "taste2" }
DEF Taste3 SharedEvent { name "taste3" }
DEF Botsound SharedEvent { name "botsound" }
]}

EXTERNPROTO Slotmachine [
        eventOut SFInt32 points
        eventIn SFString highscorelist
        eventOut SFBool  vrmlLoaded
]
"slot.wrl"


PROTO PopUp[
eventIn SFTime set_pop
eventIn SFString new_url
exposedField SFString url ""
exposedField SFString status "yes"
exposedField SFString scrollbars "auto"
exposedField SFInt32  height 300
exposedField SFInt32  width 200
exposedField SFString description "Pop Up Info"
exposedField MFNode children []
eventOut SFBool isOver
eventOut SFTime touchTime
]{
Group{children[
DEF button TouchSensor{isOver IS isOver touchTime IS touchTime}
Group{children IS children}
DEF pop Script{
eventIn SFTime set_pop
eventIn SFBool set_over
eventIn SFString new_url IS new_url
field SFString linkURL IS url
field SFString status IS status
field SFString scrollbars IS scrollbars
field SFInt32  height IS height
field SFInt32  width IS width
field SFString description IS description
field MFString param ["","","target=_self"]
url"vrmlscript:
function new_url(v,t){
 linkURL = v;
}
function set_pop(v,t){
 /* Historically these five calls drove blaxxun Contact's `OnEvent(...)` popup
    control channel, which sized a browser window and loaded `url` into it. The
    only caller is the cafe TV, whose `url` is a colonycity.com page that no
    longer exists. X_ITE has no OnEvent channel: it reads each argument as an
    ordinary address and, because `param` carries `target=_self`, navigates the
    page away from the SPA to a relative path literally named
    'OnEvent(status,yes)'. The destination is dead and the mechanism is unsafe,
    so the popup is not reconstructed. Every other part of the PROTO - the
    TouchSensor, the hover description and the children - is unchanged. */
 Browser.setDescription('');
}
function set_over(v,t){
 if(v){ Browser.setDescription(description);}
 else{Browser.setDescription('');}
}
"}
]}
ROUTE button.touchTime TO pop.set_pop
ROUTE button.isOver TO pop.set_over
}#END PopUp PROTO




NavigationInfo {
avatarSize [ 0.1, 1.85, 0.75 ]
headlight TRUE
speed 1.0
type "WALK"
}

DEF Viewpoint1 Viewpoint { position -5.45683 2.5 -15.9776
orientation 0 -1 0 2.6388 fieldOfView 0.95993 description "Entry" }
#DEF The_whole_place Viewpoint { position -2.86984 1.85 -8.38732
#orientation 0 -1 0 2.21288 fieldOfView 0.95993 description "The whole place" }
DEF Stage Viewpoint { position -3.62506 1.85 4.16047
orientation 0 1 0 0.697771 fieldOfView 0.95993 description "Stage" }
DEF Jukebox Viewpoint { position -13.5 1.85 15.5 orientation 0 1 0 1.5703
fieldOfView 0.95993 description "Jukebox" }
DEF SlotMachine1 Viewpoint {position -7.5 1.65 15.5 orientation 0 1 0 3.1416  #1.5708
fieldOfView 0.95993 description "Slot Machine" }
#DEF Dancer Viewpoint { position -7.95621 1.85 -1.76572
#orientation 0 1 0 0.632742 fieldOfView 0.95993 description "Dancer" }
#DEF Office Viewpoint { position -2.22617 1.85 13.5666
#orientation 0 -1 0 3.07068 fieldOfView 0.95993 description "Go to Plaza" }
DEF Visitor_1 Viewpoint { position 17.7323 1.85 2.95813 orientation 0 1 0 .15
fieldOfView 0.95993 description "Bar Right" }
DEF Visitor_2 Viewpoint { position 16.8431 1.85 -7.76185 orientation 0 -1 0 3.14
fieldOfView 0.95993 description "Bar Left" }
#DEF Overview Viewpoint { position -3.62506 50.1846 4.16047 orientation -0.880478 0.349533 0.320288 1.6107
#fieldOfView 0.95993 description "Overview" }
DEF Exit Viewpoint { position -3.62386 1.85 -8.94881
orientation 0 -1 0 0.275544 fieldOfView 0.95993 description "Go to Plaza" }

DEF Scene Collision { collide TRUE children [
DirectionalLight { intensity 0 ambientIntensity 1 },
DirectionalLight { intensity 0.8 color 0.5 0.5 0.5 direction 5.7158 6.55752 4.68044 },
DirectionalLight { intensity 0.8 color 0.5 0.5 0.5 direction -9.28698 -1.15808 -3.1605 },
DirectionalLight { intensity 0.8 color 0.5 0.5 0.5 direction 3.36959 -7.07158 -6.01801 },
Transform{rotation 1 0 0 -1.5708 children [
Transform { translation -1.78826 -19.685 0.341628 rotation -0.57735 0.57735 0.57735 4.18879 scale 0.1 0.1 0.1
children [
Shape{appearance Appearance{material DEF Shader37_0 Material{ambientIntensity 0.123021 diffuseColor 0.0857935 0.0972213 0.186047 shininess 0}}
geometry IndexedFaceSet{coord Coordinate{point[ -1 1 0,1 1 0,1 0.6 0,-1 0.6 0,-0.2 0.6 0,0.2 0.6 0,0.2 -1 0,-0.2 -1 0,-1 -0.1 0,-1 -1 0,-0.6 -1 0,-0.6 -0.1 0,0.6 -1 0,0.6 -0.1 0,1 -0.1 0,1 -1 0,-1 0.3 0,-0.2 0.3 0,-0.2 -0.1 0,-1 -0.1 0,0.2 0.3 0,1 0.3 0,1 -0.1 0,0.2 -0.1 0]}
normalPerVertex FALSE ccw FALSE creaseAngle -4.31602e+008
coordIndex [ 0,1,2,3,-1,4,5,6,7,-1,11,10,9,8,-1,12,13,14,15,-1,16,17,18,19,-1,20,21,22,23,-1 ]}}]},
Transform { translation 16.8055 5.06082 1.00744 rotation 5.5668e-005 -0.000872665 1 3.269 children [
DEF Flasche_rot_links TouchSensor{}
DEF FlascheRL PlaneSensor{}
DEF FlascheRLT Transform{ scaleOrientation 0 1 0 0.785398 children[
DEF flasche_rot Group{children[
Shape { appearance Appearance { material DEF Shader70_11 Material {ambientIntensity 0.827253 diffuseColor 1 0.87554 0.606218 shininess 0 }}
geometry IndexedFaceSet { coord Coordinate { point [ 0.0218064 -6.05248e-019 0.544948,0.0218064 -6.05248e-019
0.615956,0.0154194 0.0154194 0.615956,0.0154194 0.0154194 0.544948,6.05248e-019 0.0218064 0.615956,6.05248e-019 0.0218064 0.544948,-0.0154194 0.0154194 0.615956,-0.0154194 0.0154194 0.544948,-0.0218064 6.05248e-019
0.615956,-0.0218064 6.05248e-019 0.544948,-0.0154194 -0.0154194 0.615956,-0.0154194 -0.0154194 0.544948,
-6.05248e-019 -0.0218064 0.615956,-6.05248e-019 -0.0218064 0.544948,0.0154194 -0.0154194 0.615956,0.0154194
-0.0154194 0.544948,0.0218064 0 0.615956,0.0218064 0 0.544948,0 0 0.615956,0 0 0.615956,0.0154194 0.0154194
0.615956,0.0218064 -6.05248e-019 0.615956,0 0 0.615956,6.05248e-019 0.0218064 0.615956,0 0 0.615956,-0.0154194
0.0154194 0.615956,0 0 0.615956,-0.0218064 6.05248e-019 0.615956,0 0 0.615956,-0.0154194 -0.0154194 0.615956,
0 0 0.615956,-6.05248e-019 -0.0218064 0.615956,0 0 0.615956,0.0154194 -0.0154194 0.615956,0 0 0.615956,
0.0218064 0 0.615956 ]}
normal Normal { vector [ 0.92388 0.382683 0,0.382683 0.92388 0,-0.382683 0.92388 0,-0.92388 0.382683 0,
-0.92388 -0.382683 0,-0.382683 -0.92388 0,0.382683 -0.92388 0,0.92388 -0.382683 0,2.21749e-015 0 1,0 0 1,
0 0 1,0 0 1,-2.21749e-015 0 1,0 0 1,0 0 1,0 0 1 ]}
normalPerVertex FALSE ccw FALSE creaseAngle -4.31602e+008
coordIndex [ 0,1,2,3,-1,3,2,4,5,-1,5,4,6,7,-1,7,6,8,9,-1,9,8,10,11,-1,11,10,12,13,-1,13,12,14,15,-1,
15,14,16,17,-1,18,19,20,21,-1,19,22,23,20,-1,22,24,25,23,-1,24,26,27,25,-1,26,28,29,27,-1,28,30,31,29,-1,
30,32,33,31,-1,32,34,35,33,-1 ]}},
Shape { appearance Appearance { material DEF Shader4_12 Material { ambientIntensity 0.158344 diffuseColor 0.0809686 0.300518 0.0935466 specularColor 0.5 0.5 0.5 shininess 0.7 }}
geometry IndexedFaceSet { coord Coordinate { point [ 0.0241805 -5.57511e-019 0.545273,0.0170982 0.0170982 0.545273,0.0172587 0.0172587 0.402799,0.0244075 -4.44915e-019 0.402799,0 0.0241805 0.545273,4.44915e-019 0.0244075 0.402799,
-0.0170982 0.0170982 0.545273,-0.0172587 0.0172587 0.402799,-0.0241805 5.57511e-019 0.545273,-0.0244075 8.8983e-019 0.402799,-0.0170982 -0.0170982 0.545273,-0.0172587 -0.0172587 0.402799,0 -0.0241805 0.545273,-1.33474e-018 -0.0244075 0.402799,0.0170982 -0.0170982 0.545273,0.0172587 -0.0172587 0.402799,0.0241805 0 0.545273,0.0244075 0 0.402799,0.0561601 0.0561601 0.344183,0.0794224 -1.3015e-018 0.344183,2.603e-018 0.0794224 0.344183,
-0.0561601 0.0561601 0.344183,-0.0794224 2.603e-018 0.344183,-0.0561601 -0.0561601 0.344183,-1.3015e-018 -0.0794224 0.344183,0.0561601 -0.0561601 0.344183,0.0794224 0 0.344183 ]}
normal Normal { vector [ 0.923878 0.382683 0.00147173,0.382683 0.923878 0.00147173,-0.382683 0.923878 0.00147173,-0.923878 0.382683 0.00147173,-0.923878 -0.382683 0.00147173,-0.382683 -0.923878 0.00147173,0.382683 -0.923878 0.00147173,
0.923878 -0.382683 0.00147173,0.698011 0.289126 0.655124,0.289126 0.698011 0.655124,-0.289126 0.698011 0.655124,-0.698011 0.289126 0.655124,-0.698011 -0.289126 0.655124,-0.289126 -0.698011 0.655124,0.289126 -0.698011 0.655124,0.698011 -0.289126 0.655124 ]}
normalPerVertex FALSE ccw FALSE creaseAngle -4.31602e+008
coordIndex [ 0,1,2,3,-1,1,4,5,2,-1,4,6,7,5,-1,6,8,9,7,-1,8,10,11,9,-1,10,12,13,11,-1,12,14,15,13,-1,14,16,17,15,-1,
3,2,18,19,-1,2,5,20,18,-1,5,7,21,20,-1,7,9,22,21,-1,9,11,23,22,-1,11,13,24,23,-1,13,15,25,24,-1,15,17,26,25,-1 ]}},
Shape { appearance Appearance { material DEF Shader71_13 Material { ambientIntensity 0.761658 diffuseColor 0.761658 0.761658 0.761658 specularColor 0.5 0.5 0.5 shininess 0.7 }}
geometry IndexedFaceSet { coord Coordinate { point [ -0.0809057 3.60601e-018 0.29847,-0.0572089 -0.0572089 0.29847,-0.0574152 -0.0574152 0.143124,-0.0811974 2.39418e-018 0.143124,0 -0.0809057 0.29847,-1.19709e-018 -0.0811974 0.143124,0.0572089 -0.0572089 0.29847,0.0574152 -0.0574152 0.143124,0.0809057 0 0.29847,0.0811974 0 0.143124 ]}
normal Normal { vector [ -0.923878 -0.382683 0.00173508,-0.382683 -0.923878 0.00173508,0.382683 -0.923878 0.00173508,0.923878 -0.382683 0.00173508 ]}
normalPerVertex FALSE ccw FALSE creaseAngle -4.31602e+008
coordIndex [ 0,1,2,3,-1,1,4,5,2,-1,4,6,7,5,-1,6,8,9,7,-1 ]}},
Shape { appearance Appearance { material DEF Shader72_14 Material { ambientIntensity 0.355848 diffuseColor 0.854922 0 0.212623 shininess 0 }}
geometry IndexedFaceSet { coord Coordinate { point [ 0.0794224 -1.3015e-018 0.344183,0.0561601 0.0561601 0.344183,0.0572089 0.0572089 0.29847,0.0809057 -2.404e-018 0.29847,2.603e-018 0.0794224 0.344183,1.202e-018 0.0809057 0.29847,-0.0561601 0.0561601 0.344183,
-0.0572089 0.0572089 0.29847,-0.0794224 2.603e-018 0.344183,-0.0809057 3.60601e-018 0.29847,-0.0561601 -0.0561601 0.344183,-0.0572089 -0.0572089 0.29847,-1.3015e-018 -0.0794224 0.344183,0 -0.0809057 0.29847,0.0561601 -0.0561601 0.344183,0.0572089 -0.0572089 0.29847,0.0794224 0 0.344183,0.0809057 0 0.29847,0.0574152 0.0574152 0.143124,
0.0811974 -1.19709e-018 0.143124,0 0.0811974 0.143124,-0.0574152 0.0574152 0.143124,-0.0811974 2.39418e-018 0.143124,-0.082279 3.02347e-018 0,-0.05818 -0.05818 0,0 0 0,0 0 0,0 -0.082279 0,0 0 0,0.05818 -0.05818 0,0 0 0,0.082279 0 0,0 0 0,0.05818 0.05818 0,0.082279 -3.02347e-018 0,0 0.082279 0,-0.05818 0.05818 0,-0.0574152 -0.0574152 0.143124,-1.19709e-018 -0.0811974 0.143124,0.0574152 -0.0574152 0.143124,0.0811974 0 0.143124,0 0 0,0 0 0,0 0 0,0 0 0 ]}
normal Normal { vector [ 0.923465 0.382512 0.0299651,0.382512 0.923465 0.0299651,-0.382512 0.923465 0.0299651,-0.923465 0.382512 0.0299651,-0.923465 -0.382512 0.0299651,-0.382512 -0.923465 0.0299651,0.382512 -0.923465 0.0299651,
0.923465 -0.382512 0.0299651,0.923878 0.382683 0.00173508,0.382683 0.923878 0.00173508,-0.382683 0.923878 0.00173508,-0.923878 0.382683 0.00173508,0 0 -1,0 0 -1,0 0 -1,0 0 -1,0.923857 0.382674 0.00698165,0.382674 0.923857 0.00698165,
-0.382674 0.923857 0.00698165,-0.923857 0.382674 0.00698165,-0.923857 -0.382674 0.00698165,-0.382674 -0.923857 0.00698165,0.382674 -0.923857 0.00698165,0.923857 -0.382674 0.00698165,0 0 -1,0 0 -1,0 0 -1,0 0 -1 ]}
normalPerVertex FALSE ccw FALSE creaseAngle -4.31602e+008
coordIndex [ 0,1,2,3,-1,1,4,5,2,-1,4,6,7,5,-1,6,8,9,7,-1,8,10,11,9,-1,10,12,13,11,-1,12,14,15,13,-1,14,16,17,15,-1,
3,2,18,19,-1,2,5,20,18,-1,5,7,21,20,-1,7,9,22,21,-1,23,24,25,26,-1,24,27,28,25,-1,27,29,30,28,-1,29,31,32,30,-1,19,18,33,34,-1,
18,20,35,33,-1,20,21,36,35,-1,21,22,23,36,-1,22,37,24,23,-1,37,38,27,24,-1,38,39,29,27,-1,39,40,31,29,-1,34,33,41,42,-1,
33,35,43,41,-1,35,36,44,43,-1,36,23,26,44,-1 ]}}]}]}]},
Transform { translation 16.5801 -1.04945 1.00744 children [
DEF Flasche_rot_rechts TouchSensor{}
DEF FlascheRR PlaneSensor{}
DEF FlascheRRT Transform{children USE flasche_rot }]}
Transform{translation 16.1884 5.03977 1.00744 children [
DEF Flasche_blau_links TouchSensor {}
DEF FlascheBL PlaneSensor{}
DEF FlascheBLT Transform{rotation 0 0 1 3.50288 children[
DEF flasche_blau Group{children[Shape{ appearance Appearance { material DEF DefaultShader2_15 Material { ambientIntensity 0.527916 diffuseColor 0 0.687374 0.896373 shininess 0 }}
geometry IndexedFaceSet { coord Coordinate { point [ 0.0694507 -1.31707e-018 0.31486,0.049109 0.049109 0.31486,0.0664595 0.0664595 0.248728,0.0939879 -5.26827e-018 0.248728,2.63413e-018 0.0694507 0.31486,2.63413e-018 0.0939879 0.248728,
-0.049109 0.049109 0.31486,-0.0664595 0.0664595 0.248728,-0.0694507 2.63413e-018 0.31486,-0.0939879 5.26827e-018 0.248728,-0.049109 -0.049109 0.31486,-0.0664595 -0.0664595 0.248728,0 -0.0694507 0.31486,-2.63413e-018 -0.0939879 0.248728,0.049109 -0.049109 0.31486,0.0664595 -0.0664595 0.248728,0.0694507 0 0.31486,0.0939879 0 0.248728,
0.061299 0.061299 0.0850014,0.0866899 -1.31707e-018 0.0850014,1.31707e-018 0.0866899 0.0850014,-0.061299 0.061299 0.0850014,-0.0866899 2.63413e-018 0.0850014,-0.061299 -0.061299 0.0850014,0 -0.0881884 0,0.0623586 -0.0623586 0,
0 0 0,0 0 0,0.0881884 0 0,0 0 0,0.0866899 0 0.0850014,0.061299 -0.061299 0.0850014,0.0623586 0.0623586 0,0.0881884 -2.63413e-018 0,0 0.0881884 0,-0.0623586 0.0623586 0,-0.0881884 3.9512e-018 0,-0.0623586 -0.0623586 0,-1.31707e-018 -0.0866899 0.0850014,0 0 0,0 0 0,0 0 0,0 0 0,0 0 0,0 0 0 ]}
normal Normal { vector [ 0.873958 0.362005 0.324268,0.362005 0.873958 0.324268,-0.362005 0.873958 0.324268,-0.873958 0.362005 0.324268,-0.873958 -0.362005 0.324268,-0.362005 -0.873958 0.324268,0.362005 -0.873958 0.324268,
0.873958 -0.362005 0.324268,0.923097 0.382359 -0.0411459,0.382359 0.923097 -0.0411459,-0.382359 0.923097 -0.0411459,-0.923097 0.382359 -0.0411459,-0.923097 -0.382359 -0.0411459,0 0 -1,0 0 -1,0.923097 -0.382359 -0.0411459,
0.923757 0.382633 0.016285,0.382633 0.923757 0.016285,-0.382633 0.923757 0.016285,-0.923757 0.382633 0.016285,-0.923757 -0.382633 0.016285,-0.382633 -0.923757 0.016285,0.382633 -0.923757 0.016285,0.923757 -0.382633 0.016285,0 0 -1,0 0 -1,0 0 -1,0 0 -1,0 0 -1,0 0 -1 ]}
normalPerVertex FALSE ccw FALSE creaseAngle -4.31602e+008
coordIndex [ 0,1,2,3,-1,1,4,5,2,-1,4,6,7,5,-1,6,8,9,7,-1,8,10,11,9,-1,10,12,13,11,-1,12,14,15,13,-1,14,16,17,15,-1,
3,2,18,19,-1,2,5,20,18,-1,5,7,21,20,-1,7,9,22,21,-1,9,11,23,22,-1,24,25,26,27,-1,25,28,29,26,-1,15,17,30,31,-1,19,18,32,33,-1,
18,20,34,32,-1,20,21,35,34,-1,21,22,36,35,-1,22,23,37,36,-1,23,38,24,37,-1,38,31,25,24,-1,31,30,28,25,-1,33,32,39,40,-1,32,34,41,39,-1,34,35,42,41,-1,35,36,43,42,-1,36,37,44,43,-1,37,24,27,44,-1 ]}},
Shape { appearance Appearance { material USE Shader70_11 }
geometry IndexedFaceSet { coord Coordinate { point [ -0.0664595 -0.0664595 0.248728,-2.63413e-018 -0.0939879 0.248728,-1.31707e-018 -0.0866899 0.0850014,
-0.061299 -0.061299 0.0850014,0.0664595 -0.0664595 0.248728,0.061299 -0.061299 0.0850014 ]}
normal Normal { vector [ -0.382359 -0.923097 -0.0411459,0.382359 -0.923097 -0.0411459 ]}
normalPerVertex FALSE ccw FALSE creaseAngle -4.31602e+008
coordIndex [ 0,1,2,3,-1,1,4,5,2,-1 ]}},
Shape { appearance Appearance { material USE Shader71_13 }
geometry IndexedFaceSet { coord Coordinate { point [ 0.0254935 0 0.569839,0.0180266 0.0180266 0.569839,0.0225342 0.0225342 0.3809,0.0318682 0 0.3809,0 0.0254935 0.569839,0 0.0318682 0.3809,-0.0180266 0.0180266 0.569839,-0.0225342 0.0225342 0.3809,-0.0254935 6.58534e-019 0.569839,-0.0318682 6.58534e-019 0.3809,
-0.0180266 -0.0180266 0.569839,-0.0225342 -0.0225342 0.3809,0 -0.0254935 0.569839,-6.58534e-019 -0.0318682 0.3809,0.0180266 -0.0180266 0.569839,0.0225342 -0.0225342 0.3809,0.0254935 0 0.569839,0.0318682 0 0.3809,
0.049109 0.049109 0.31486,0.0694507 -1.31707e-018 0.31486,2.63413e-018 0.0694507 0.31486,-0.049109 0.049109 0.31486,-0.0694507 2.63413e-018 0.31486,-0.049109 -0.049109 0.31486,0 -0.0694507 0.31486,0.049109 -0.049109 0.31486,0.0694507 0 0.31486 ]}
normal Normal { vector [ 0.923431 0.382498 0.0311564,0.382498 0.923431 0.0311564,-0.382498 0.923431 0.0311564,-0.923431 0.382498 0.0311564,-0.923431 -0.382498 0.0311564,-0.382498 -0.923431 0.0311564,0.382498 -0.923431 0.0311564,
0.923431 -0.382498 0.0311564,0.817742 0.33872 0.465366,0.33872 0.817742 0.465366,-0.33872 0.817742 0.465366,-0.817742 0.33872 0.465366,-0.817742 -0.33872 0.465366,-0.33872 -0.817742 0.465366,0.33872 -0.817742 0.465366,0.817742 -0.33872 0.465366 ]}
normalPerVertex FALSE ccw FALSE creaseAngle -4.31602e+008
coordIndex [ 0,1,2,3,-1,1,4,5,2,-1,4,6,7,5,-1,6,8,9,7,-1,8,10,11,9,-1,10,12,13,11,-1,12,14,15,13,-1,14,16,17,15,-1,
3,2,18,19,-1,2,5,20,18,-1,5,7,21,20,-1,7,9,22,21,-1,9,11,23,22,-1,11,13,24,23,-1,13,15,25,24,-1,15,17,26,25,-1 ]}},
Shape { appearance Appearance { material DEF Shader5_16 Material { ambientIntensity 0 diffuseColor 0 0 0 specularColor 0.5 0.5 0.5 shininess 0.7 }}
geometry IndexedFaceSet { coord Coordinate { point [ 0.0339871 -9.4333e-019 0.563269,0.0339871 -9.4333e-019 0.599958,0.0240325 0.0240325 0.599958,0.0240325 0.0240325 0.563269,9.4333e-019 0.0339871 0.599958,9.4333e-019 0.0339871 0.563269,
-0.0240325 0.0240325 0.599958,-0.0240325 0.0240325 0.563269,-0.0339871 9.4333e-019 0.599958,-0.0339871 9.4333e-019 0.563269,-0.0240325 -0.0240325 0.599958,-0.0240325 -0.0240325 0.563269,-9.4333e-019 -0.0339871 0.599958,-9.4333e-019 -0.0339871 0.563269,
0.0240325 -0.0240325 0.599958,0.0240325 -0.0240325 0.563269,0.0339871 0 0.599958,0.0339871 0 0.563269,0 0 0.599958,0 0 0.599958,0.0240325 0.0240325 0.599958,0.0339871 -9.4333e-019 0.599958,0 0 0.599958,9.4333e-019 0.0339871 0.599958,
0 0 0.599958,-0.0240325 0.0240325 0.599958,0 0 0.599958,-0.0339871 9.4333e-019 0.599958,0 0 0.599958,-0.0240325 -0.0240325 0.599958,0 0 0.599958,-9.4333e-019 -0.0339871 0.599958,0 0 0.599958,0.0240325 -0.0240325 0.599958,0 0 0.599958,0.0339871 0 0.599958 ]}
normal Normal { vector [ 0.92388 0.382683 0,0.382683 0.92388 0,-0.382683 0.92388 0,-0.92388 0.382683 0,-0.92388 -0.382683 0,
-0.382683 -0.92388 0,0.382683 -0.92388 0,0.92388 -0.382683 0,1.38581e-015 0 1,4.24764e-015 0 1,0 0 1,0 0 1,-1.38581e-015 0 1,-4.24764e-015 0 1,0 0 1,0 0 1 ]}
normalPerVertex FALSE ccw FALSE creaseAngle -4.31602e+008
coordIndex [ 0,1,2,3,-1,3,2,4,5,-1,5,4,6,7,-1,7,6,8,9,-1,9,8,10,11,-1,11,10,12,13,-1,13,12,14,15,-1,15,14,16,17,-1,
18,19,20,21,-1,19,22,23,20,-1,22,24,25,23,-1,24,26,27,25,-1,26,28,29,27,-1,28,30,31,29,-1,30,32,33,31,-1,32,34,35,33,-1 ]}}]}]}]},
Transform { translation 17.2366 -1.08533 1.00744 children[
DEF Flasche_blau_rechts TouchSensor{}
DEF FlascheBR PlaneSensor{}
DEF FlascheBRT Transform{children USE flasche_blau }]}
Transform{translation 16.5581 5.1546 1.00744 children [
DEF GlasLP PlaneSensor{},
DEF GlasL Transform{ scale 0.775528 0.775528 0.775528 rotation 0 0 1 4.31271 children[
DEF Glas Group{children[Shape { appearance Appearance { material USE Shader71_13 }
geometry IndexedFaceSet { coord Coordinate { point [ 0.0983372 -1.54949e-018 0.366394,0.0695349 0.0695349 0.366394,0.10365 0.10365 0.403177,0.146583 -6.19795e-018 0.403177,1.54949e-018 0.0983372 0.366394,0 0.146583 0.403177,
-0.0695349 0.0695349 0.366394,-0.10365 0.10365 0.403177,-0.0983372 4.64846e-018 0.366394,-0.146583 6.19795e-018 0.403177,-0.0695349 -0.0695349 0.366394,-0.10365 -0.10365 0.403177,-1.54949e-018 -0.0983372 0.366394,0 -0.146583 0.403177,0.0695349 -0.0695349 0.366394,0.10365 -0.10365 0.403177,0.0983372 0 0.366394,0.146583 0 0.403177,
0.01579 0.01579 0.178644,0.0223305 -7.74744e-019 0.178644,3.87372e-019 0.0223305 0.178644,-0.01579 0.01579 0.178644,-0.0223305 3.87372e-019 0.178644,-0.01579 -0.01579 0.178644,-7.74744e-019 -0.0223305 0.178644,0.01579 -0.01579 0.178644,0.0223305 0 0.178644,0.00767428 0.00767428 0.0366902,0.0108531 -1.93686e-019 0.0366902,
1.93686e-019 0.0108531 0.0366902,-0.00767428 0.00767428 0.0366902,-0.0108531 3.87372e-019 0.0366902,-0.00767428 -0.00767428 0.0366902,-1.93686e-019 -0.0108531 0.0366902,0.00767428 -0.00767428 0.0366902,0.0108531 0 0.0366902,
0.0597396 0.0597396 0,0.0844845 -1.54949e-018 0,0 0.0844845 0,-0.0597396 0.0597396 0,-0.0844845 4.64846e-018 0,-0.0597396 -0.0597396 0,-1.54949e-018 -0.0844845 0,0.0597396 -0.0597396 0,0.0844845 0 0 ]}
normal Normal { vector [ -0.588041 -0.243575 0.771284,-0.243575 -0.588041 0.771284,0.243575 -0.588041 0.771284,0.588041 -0.243575 0.771284,0.588041 0.243575 0.771284,0.243575 0.588041 0.771284,-0.243575 0.588041 0.771284,
-0.588041 0.243575 0.771284,0.822606 0.340735 -0.455213,0.340735 0.822606 -0.455213,-0.340735 0.822606 -0.455213,-0.822606 0.340735 -0.455213,-0.822606 -0.340735 -0.455213,-0.340735 -0.822606 -0.455213,0.340735 -0.822606 -0.455213,
0.822606 -0.340735 -0.455213,0.921313 0.38162 -0.0744911,0.38162 0.921313 -0.0744911,-0.38162 0.921313 -0.0744911,-0.921313 0.38162 -0.0744911,-0.921313 -0.38162 -0.0744911,-0.38162 -0.921313 -0.0744911,0.38162 -0.921313 -0.0744911,
0.921313 -0.38162 -0.0744911,0.438572 0.181662 0.880144,0.181662 0.438572 0.880144,-0.181662 0.438572 0.880144,-0.438572 0.181662 0.880144,-0.438572 -0.181662 0.880144,-0.181662 -0.438572 0.880144,0.181662 -0.438572 0.880144,0.438572 -0.181662 0.880144 ]}
normalPerVertex FALSE ccw FALSE creaseAngle -4.31602e+008
coordIndex [ 0,1,2,3,-1,1,4,5,2,-1,4,6,7,5,-1,6,8,9,7,-1,8,10,11,9,-1,10,12,13,11,-1,12,14,15,13,-1,14,16,17,15,-1,3,2,18,19,-1,
2,5,20,18,-1,5,7,21,20,-1,7,9,22,21,-1,9,11,23,22,-1,11,13,24,23,-1,13,15,25,24,-1,15,17,26,25,-1,19,18,27,28,-1,18,20,29,27,-1,20,21,30,29,-1,21,22,31,30,-1,22,23,32,31,-1,23,24,33,32,-1,24,25,34,33,-1,25,26,35,34,-1,28,27,36,37,-1,
27,29,38,36,-1,29,30,39,38,-1,30,31,40,39,-1,31,32,41,40,-1,32,33,42,41,-1,33,34,43,42,-1,34,35,44,43,-1 ]}},
Shape { appearance Appearance { material USE Shader72_14 }
geometry IndexedFaceSet { coord Coordinate { point [ 0.0983372 -1.54949e-018 0.366394,0.0695349 0.0695349 0.366394,0 0 0.366143,0 0 0.366143,1.54949e-018 0.0983372 0.366394,0 0 0.366143,-0.0695349 0.0695349 0.366394,0 0 0.366143,
-0.0983372 4.64846e-018 0.366394,0 0 0.366143,-0.0695349 -0.0695349 0.366394,0 0 0.366143,-1.54949e-018 -0.0983372 0.366394,0 0 0.366143,0.0695349 -0.0695349 0.366394,0 0 0.366143,0.0983372 0 0.366394,0 0 0.366143 ]}
normal Normal { vector [ -0.00254891 -0.00105579 0.999996,-0.00105579 -0.00254891 0.999996,0.00105579 -0.00254891 0.999996,0.00254891 -0.00105579 0.999996,0.00254891 0.00105579 0.999996,
0.00105579 0.00254891 0.999996,-0.00105579 0.00254891 0.999996,-0.00254891 0.00105579 0.999996 ]}
normalPerVertex FALSE ccw FALSE creaseAngle -4.31602e+008
coordIndex [ 3,2,1,0,-1,2,5,4,1,-1,5,7,6,4,-1,7,9,8,6,-1,9,11,10,8,-1,11,13,12,10,-1,13,15,14,12,-1,15,17,16,14,-1 ]}}]}]}]},
Transform { translation 16.8316 -1.19095 1.00744 children [
DEF GlasRP PlaneSensor{},
DEF GlasR Transform{scale 0.775528 0.775528 0.775528 children USE Glas }]}
Shape { appearance Appearance { material Material { ambientIntensity 0.499136 diffuseColor 1 0.497409 0 shininess 0 }}
geometry IndexedFaceSet { coord Coordinate { point [ 5.91881 1.34969 1.00782,4.75185 1.20028 1.00782,3.53641 2 1.00782,4.70085 2 1.00782,7.20281 0.819118 1.00782,6.03318 0.547822 1.00782,8.53538 0.388055 1.00782,7.36299 0.0177269 1.00782,9.89909 0.0362574 1.00782,8.72387 -0.414893 1.00782,11.2765 -0.256514 1.00782,
10.0984 -0.774926 1.00782,12.6723 -0.507071 1.00782,11.5009 -1.08305 1.00782,14.1803 -0.7185 1.00782,13.0729 -1.34305 1.00782,15.9164 -0.890457 1.00782,14.9873 -1.55451 1.00782,17.9964 -1.0226 1.00782,17.4174 -1.71701 1.00782,19.5364 -1.11459 1.00782,19.5364 -1.83013 1.00782,5.91881 2.65031 1.00782,7.53332 2.75819 0,6.53641 2 0,
4.70085 2 1.00782,7.20281 3.18088 1.00782,8.58427 3.34709 0,8.53538 3.61194 1.00782,9.67499 3.80095 0,9.89909 3.96374 1.00782,10.7912 4.15405 0,11.2765 4.25651 1.00782,11.9186 4.44067 0,12.6723 4.50707 1.00782,13.0694 4.6931 0,
14.1803 4.7185 1.00782,14.3619 4.93574 0,15.9164 4.89046 1.00782,15.9407 5.19102 0,17.9964 5.0226 1.00782,17.9506 5.48136 0,19.5364 5.11459 1.00782,19.5364 5.8292 0,4.75185 1.20028 1.00782,7.53332 1.24181 0,6.53641 2 0,
3.53641 2 1.00782,6.03318 0.547822 1.00782,8.58427 0.652914 0,7.36299 0.0177269 1.00782,9.67499 0.199052 0,8.72387 -0.414893 1.00782,10.7912 -0.154052 0,10.0984 -0.774926 1.00782,11.9186 -0.440669 0,11.5009 -1.08305 1.00782,
13.0694 -0.693098 0,13.0729 -1.34305 1.00782,14.3619 -0.93574 0,14.9873 -1.55451 1.00782,15.9407 -1.19102 0,17.4174 -1.71701 1.00782,17.9506 -1.48136 0,19.5364 -1.83013 1.00782,19.5364 -1.8292 0,7.53332 2.75819 0,4.75185 2.79972 1.00782,
3.53641 2 1.00782,6.53641 2 0,8.58427 3.34709 0,6.03318 3.45218 1.00782,9.67499 3.80095 0,7.36299 3.98227 1.00782,10.7912 4.15405 0,8.72387 4.41489 1.00782,11.9186 4.44067 0,10.0984 4.77493 1.00782,13.0694 4.6931 0,11.5009 5.08305 1.00782,
14.3619 4.93574 0,13.0729 5.34305 1.00782,15.9407 5.19102 0,14.9873 5.55451 1.00782,17.9506 5.48136 0,17.4174 5.71701 1.00782,19.5364 5.8292 0,19.5364 5.83013 1.00782,4.70085 2 1.00782,6.53641 2 0,7.53332 1.24181 0,5.91881 1.34969 1.00782,
8.58427 0.652914 0,7.20281 0.819118 1.00782,9.67499 0.199052 0,8.53538 0.388055 1.00782,10.7912 -0.154052 0,9.89909 0.0362574 1.00782,11.9186 -0.440669 0,11.2765 -0.256514 1.00782,13.0694 -0.693098 0,12.6723 -0.507071 1.00782,14.3619 -0.93574 0,
14.1803 -0.7185 1.00782,15.9407 -1.19102 0,15.9164 -0.890457 1.00782,17.9506 -1.48136 0,17.9964 -1.0226 1.00782,19.5364 -1.8292 0,19.5364 -1.11459 1.00782,4.75185 2.79972 1.00782,5.91881 2.65031 1.00782,4.70085 2 1.00782,3.53641 2 1.00782,
6.03318 3.45218 1.00782,7.20281 3.18088 1.00782,7.36299 3.98227 1.00782,8.53538 3.61194 1.00782,8.72387 4.41489 1.00782,9.89909 3.96374 1.00782,10.0984 4.77493 1.00782,11.2765 4.25651 1.00782,11.5009 5.08305 1.00782,12.6723 4.50707 1.00782,
13.0729 5.34305 1.00782,14.1803 4.7185 1.00782,14.9873 5.55451 1.00782,15.9164 4.89046 1.00782,17.4174 5.71701 1.00782,17.9964 5.0226 1.00782,19.5364 5.83013 1.00782,19.5364 5.11459 1.00782 ]}
normal Normal { vector [ -8.71636e-009 1.36017e-007 1,0 0 1,-3.53992e-008 1.29212e-007 1,0 0 1,1.00748e-007 -2.4453e-007 1,-5.46405e-008 1.17303e-007 1,0 0 1,-5.13192e-008 8.11057e-008 1,-1.68951e-017 0 1,-1.16714e-007 4.79283e-008 1,
0.404179 -0.63557 0.657792,0.383565 -0.800034 0.461328,0.331697 -0.908324 0.254802,0.2722 -0.957623 0.0941607,0.225353 -0.974231 -0.00946251,0.193143 -0.977902 -0.0800171,0.158244 -0.975966 -0.149832,0.124248 -0.964031 -0.23496,
0.096183 -0.931123 -0.351793,0.120551 -0.856734 -0.501472,-0.296013 -0.420361 -0.857714,-0.285471 -0.536351 -0.794251,-0.260984 -0.642021 -0.720899,-0.228558 -0.720555 -0.654646,-0.198417 -0.767688 -0.609332,-0.174723 -0.795881 -0.579694,
-0.145934 -0.831626 -0.535819,-0.117191 -0.877103 -0.465786,-0.0951427 -0.932857 -0.347457,-0.122121 -0.981493 -0.147505,-0.296013 0.420361 -0.857714,-0.285471 0.536351 -0.794251,-0.260985 0.642021 -0.720899,-0.228558 0.720556 -0.654646,
-0.198418 0.767688 -0.609332,-0.174723 0.795881 -0.579694,-0.145934 0.831626 -0.535819,-0.117191 0.877103 -0.465786,-0.0951427 0.932857 -0.347457,-0.12212 0.981493 -0.147505,0.404179 0.63557 0.657792,0.383565 0.800034 0.461328,
0.331697 0.908324 0.254802,0.2722 0.957623 0.0941612,0.225353 0.974231 -0.00946226,0.193143 0.977902 -0.0800171,0.158244 0.975966 -0.149832,0.124248 0.964031 -0.234961,0.096183 0.931123 -0.351793,0.120551 0.856734 -0.501472,
-8.71636e-009 -1.36017e-007 1,1.15543e-016 0 1,-3.53992e-008 -1.29212e-007 1,0 0 1,1.00748e-007 2.4453e-007 1,-5.46405e-008 -1.17303e-007 1,-9.30649e-017 0 1,-5.13192e-008 -8.11058e-008 1,5.06853e-017 0 1,-1.16714e-007 -4.79284e-008 1 ]}
normalPerVertex FALSE ccw FALSE creaseAngle -4.31602e+008
coordIndex [ 0,1,2,3,-1,4,5,1,0,-1,6,7,5,4,-1,8,9,7,6,-1,10,11,9,8,-1,12,13,11,10,-1,14,15,13,12,-1,16,17,15,14,-1,18,19,17,16,-1,20,21,19,18,-1,22,23,24,25,-1,26,27,23,22,-1,28,29,27,26,-1,30,31,29,28,-1,32,33,31,30,-1,
34,35,33,32,-1,36,37,35,34,-1,38,39,37,36,-1,40,41,39,38,-1,42,43,41,40,-1,44,45,46,47,-1,48,49,45,44,-1,50,51,49,48,-1,52,53,51,50,-1,54,55,53,52,-1,56,57,55,54,-1,58,59,57,56,-1,60,61,59,58,-1,62,63,61,60,-1,64,65,63,62,-1,
66,67,68,69,-1,70,71,67,66,-1,72,73,71,70,-1,74,75,73,72,-1,76,77,75,74,-1,78,79,77,76,-1,80,81,79,78,-1,82,83,81,80,-1,84,85,83,82,-1,86,87,85,84,-1,88,89,90,91,-1,91,90,92,93,-1,93,92,94,95,-1,95,94,96,97,-1,97,96,98,99,-1,
99,98,100,101,-1,101,100,102,103,-1,103,102,104,105,-1,105,104,106,107,-1,107,106,108,109,-1,110,111,112,113,-1,114,115,111,110,-1,116,117,115,114,-1,118,119,117,116,-1,120,121,119,118,-1,122,123,121,120,-1,124,125,123,122,-1,
126,127,125,124,-1,128,129,127,126,-1,130,131,129,128,-1 ]}},
Transform { translation 0 -5.01836 0 scale 1 1.28235 1.11369 children [
Shape { appearance Appearance { material DEF Shader20_17 Material { ambientIntensity 0.697388 diffuseColor 0.605495 0.707598 0.77907 shininess 0 }}
geometry IndexedFaceSet { coord Coordinate { point [ -6 18.1 1.2,8.03029 18.1 1.2,8.03029 17.8 1.2,-6 17.8 1.2,-6 18.4 1.4,8.03029 18.4 1.4,8.03029 18.1 1.4,-6 18.1 1.4,-6 18.7 1.6,8.03029 18.7 1.6,8.03029 18.4 1.6,-6 18.4 1.6,-6 16.6 0.2,8.03029 16.6 0.2,8.03029 16.3 0.2,-6 16.3 0.2,-6 17.8 1,8.03029 17.8 1,8.03029 17.5 1,-6 17.5 1,
-6 16.9 0.4,8.03029 16.9 0.4,8.03029 16.6 0.4,-6 16.6 0.4,-6 17.2 0.6,8.03029 17.2 0.6,8.03029 16.9 0.6,-6 16.9 0.6,-6 19 1.8,8.03029 19 1.8,8.03029 18.7 1.8,-6 18.7 1.8,-6 17.5 0.8,8.03029 17.5 0.8,8.03029 17.2 0.8,-6 17.2 0.8 ]}
normalPerVertex FALSE ccw FALSE creaseAngle -4.31602e+008
coordIndex [ 0,1,2,3,-1,4,5,6,7,-1,8,9,10,11,-1,12,13,14,15,-1,16,17,18,19,-1,20,21,22,23,-1,24,25,26,27,-1,28,29,30,31,-1,32,33,34,35,-1 ]}}]},
Transform { translation 0 -5.01836 0 scale 1 1.28235 1.11369 children [
Shape { appearance Appearance { material Material { ambientIntensity 0.292174
diffuseColor 0.20376 0.230901 0.44186 shininess 0 }}
geometry IndexedFaceSet { coord Coordinate { point [ -6 16.3 0.2,8.03029 16.3 0.2,8.03029 16.3 0,-6 16.3 0,-6 16.6 0.4,8.03029 16.6 0.4,8.03029 16.6 0.2,-6 16.6 0.2,8.03029 17.5 0.8,-6 17.5 0.8,8.03029 19 1.8,-6 19 1.8,-6 18.7 1.8,8.03029 18.7 1.8,8.03029 18.7 1.6,-6 18.7 1.6,-6 16.9 0.6,8.03029 16.9 0.6,8.03029 16.9 0.4,-6 16.9 0.4,
-6 17.8 1.2,8.03029 17.8 1.2,8.03029 17.8 1,-6 17.8 1,-6 18.4 1.6,8.03029 18.4 1.6,8.03029 18.4 1.4,-6 18.4 1.4,-6 18.1 1.4,8.03029 18.1 1.4,8.03029 18.1 1.2,-6 18.1 1.2,-6 17.2 0.8,8.03029 17.2 0.8,8.03029 17.2 0.6,-6 17.2 0.6,-6 17.5 1,8.03029 17.5 1 ]}
normal Normal { vector [ 0 -1 0,0 -1 0,0 0 0,0 -1 0,0 -1 0,0 -1 0,0 -1 0,0 -1 0,0 -1 0,0 -1 0 ]}
normalPerVertex FALSE ccw FALSE creaseAngle -4.31602e+008
coordIndex [ 0,1,2,3,-1,4,5,6,7,-1,10,11,-1,12,13,14,15,-1,16,17,18,19,-1,20,21,22,23,-1,24,25,26,27,-1,28,29,30,31,-1,32,33,34,35,-1,36,37,8,9,-1 ]}}]},
Transform { translation 1.28008 19.5 3.25 scale 0.5 0.5 0.5 children [
Group {
children [ 
    DEF TSPlaza TouchSensor {},
DEF R Shape { appearance Appearance { material Material { ambientIntensity 0.488774 diffuseColor 1 0.466321 0 shininess 0 }}
geometry IndexedFaceSet { coord Coordinate { point [ -1.9 -0.9 -2.1,-1.9 -0.9 -2.5,-3.1 -0.9 -2.5,-3.1 -0.9 -2.1,3.4 -1.1 2.9,3.4 -1.1 3.27496,3.4 1 3.27496,3.4 1 2.9,3.4 -1.1 3.27496,3.4 -1.1 2.9,-3.4 -1.1 2.9,-3.4 -1.1 3.27496,
-3.4 1 3.27496,-3.4 -1.1 3.27496,-3.4 -1.1 2.9,-3.4 1 2.9,3.4 1 2.9,-3.4 1 2.9,-3.4 -1.1 2.9,3.4 -1.1 2.9,1.9 -0.9 -2.5,1.9 -0.9 -2.1,2.4 -0.8 -2.5,2.4 -0.8 2.5,2.4 0 2.5,2.4 0 -2.5,-3.4 1 3.27496,3.4 1 3.27496,3.4 -1.1 3.27496,
-3.4 -1.1 3.27496,-3.1 -0.9 -2.1,-3.1 1 -2.1,-1.9 0 -2.1,-1.9 -0.9 -2.1,-3.1 1 -2.1,-3.1 -0.9 -2.1,-3.1 -0.9 -2.5,-3.1 1 -2.5,2 0 2.5,2 -0.8 2.5,2 -0.8 -2.5,2 0 -2.5,-1.9 -0.9 -2.5,-1.9 -0.9 -2.1,-1.9 0 -2.1,-1.9 0 -2.5,
2.4 -0.8 2.5,2.4 -0.8 -2.5,2 -0.8 -2.5,2 -0.8 2.5,3 -0.8 -2.5,3 -0.8 2.5,3 1 2.5,3 1 -2.5,2.6 0 2.5,2.6 -0.8 2.5,2.6 -0.8 -2.5,2.6 0 -2.5,3 -0.8 2.5,3 -0.8 -2.5,2.6 -0.8 -2.5,2.6 -0.8 2.5,-2.6 -0.8 -2.5,-2.6 -0.8 2.5,-2.6 0 2.5,
-2.6 0 -2.5,-3 1 2.5,-3 -0.8 2.5,-3 -0.8 -2.5,-3 1 -2.5,-2.6 -0.8 2.5,-2.6 -0.8 -2.5,-3 -0.8 -2.5,-3 -0.8 2.5,3.1 -0.9 2.5,3.1 -0.9 2.9,3.1 1 2.9,3.1 1 2.5,3.1 1 2.5,1.9 0 2.5,1.9 -0.9 2.5,3.1 -0.9 2.5,1.9 -0.9 2.9,1.9 0 2.9,
3.1 1 2.9,3.1 -0.9 2.9,3.1 -0.9 2.9,3.1 -0.9 2.5,1.9 -0.9 2.5,1.9 -0.9 2.9,1.9 0 2.9,1.9 -0.9 2.9,1.9 -0.9 2.5,1.9 0 2.5,-1.8 -1 2.9,-1.8 -1 2.7,-3.2 -1 2.7,-3.2 -1 2.9,-3.2 -1 2.9,-3.2 1 2.9,-1.8 0 2.9,-1.8 -1 2.9,-3.2 1 2.9,
-3.2 -1 2.9,-3.2 -1 2.7,-3.2 1 2.7,-1.8 -1 2.7,-1.8 -1 2.9,-1.8 0 2.9,-1.8 0 2.7,-1.8 0 2.7,-3.2 1 2.7,-3.2 -1 2.7,-1.8 -1 2.7,-1.8 -1 -2.5,-1.8 -1 -2.3,-1.8 0 -2.3,-1.8 0 -2.5,-3.2 1 -2.3,-3.2 -1 -2.3,-3.2 -1 -2.5,-3.2 1 -2.5,
-3.2 -1 -2.3,-3.2 1 -2.3,-1.8 0 -2.3,-1.8 -1 -2.3,-1.8 -1 -2.3,-1.8 -1 -2.5,-3.2 -1 -2.5,-3.2 -1 -2.3,1.8 0 2.9,1.8 -1 2.9,1.8 -1 2.7,1.8 0 2.7,3.2 1 2.7,1.8 0 2.7,1.8 -1 2.7,3.2 -1 2.7,3.2 -1 2.7,3.2 -1 2.9,3.2 1 2.9,
3.2 1 2.7,3.2 -1 2.9,3.2 -1 2.7,1.8 -1 2.7,1.8 -1 2.9,1.8 -1 2.9,1.8 0 2.9,3.2 1 2.9,3.2 -1 2.9,-2 -0.8 -2.5,-2 -0.8 2.5,-2 0 2.5,-2 0 -2.5,-2 -0.8 2.5,-2 -0.8 -2.5,-2.4 -0.8 -2.5,-2.4 -0.8 2.5,-2.4 0 2.5,-2.4 -0.8 2.5,-2.4 -0.8 -2.5,
-2.4 0 -2.5,-1.9 -0.9 2.9,-1.9 -0.9 2.5,-3.1 -0.9 2.5,-3.1 -0.9 2.9,-1.9 0 2.5,-3.1 1 2.5,-3.1 -0.9 2.5,-1.9 -0.9 2.5,-3.1 1 2.9,-3.1 -0.9 2.9,-3.1 -0.9 2.5,-3.1 1 2.5,-3.1 -0.9 2.9,-3.1 1 2.9,-1.9 0 2.9,-1.9 -0.9 2.9,-1.9 -0.9 2.5,
-1.9 -0.9 2.9,-1.9 0 2.9,-1.9 0 2.5,3.2 -1 -2.5,3.2 -1 -2.3,3.2 1 -2.3,3.2 1 -2.5,1.8 -1 -2.3,1.8 0 -2.3,3.2 1 -2.3,3.2 -1 -2.3,1.8 0 -2.3,1.8 -1 -2.3,1.8 -1 -2.5,1.8 0 -2.5,3.2 -1 -2.3,3.2 -1 -2.5,1.8 -1 -2.5,1.8 -1 -2.3,1.9 0 -2.1,
1.9 -0.9 -2.1,1.9 -0.9 -2.5,1.9 0 -2.5,1.9 -0.9 -2.1,1.9 0 -2.1,3.1 1 -2.1,3.1 -0.9 -2.1,3.1 -0.9 -2.5,3.1 -0.9 -2.1,3.1 1 -2.1,3.1 1 -2.5,3.1 -0.9 -2.1,3.1 -0.9 -2.5 ]}
normal Normal { vector [ 0 -1 0,1 0 0,0 -1 -3.48342e-015,-1 0 0,0 0 -1,1 0 0,0 -1 0,0 -1 0,0 0 1,1.32169e-016 0 1,-1 0 0,1 0 0,1 0 0,-1 0 0,1 1.97373e-016 0,-1 0 0,0 -1 0,1 0 0,-1 1.97373e-016 0,0 -1 0,1 -5.84328e-017 0,0 1.58603e-016 -1,
-5.28678e-016 -1.58603e-016 1,0 -1 0,-1 0 0,0 -1 0,0 -1.4803e-016 1,-1 0 0,1 -1.11022e-016 0,-2.11471e-016 -2.96059e-016 -1,1 0 0,-1 0 0,0 0 1,0 -1 0,-1 0 0,0 -2.96059e-016 -1,1 2.22045e-016 0,0 -1 0,0 -1.4803e-016 1,1 0 0,0 -1 0,
-1 0 0,0 -1 0,0 1.58603e-016 -1,-1 0 0,2.64339e-016 -1.58603e-016 1,1 0 0,1 0 0,0 0 1,-1 0 0,0 -1 0,-1 0 0,-2.64339e-016 0 1 ]}
normalPerVertex FALSE ccw FALSE creaseAngle -4.31602e+008
coordIndex [ 0,1,2,3,-1,4,5,6,7,-1,8,9,10,11,-1,12,13,14,15,-1,16,17,18,19,-1,206,207,208,209,-1,46,47,48,49,-1,210,211,20,21,-1,26,27,28,29,-1,30,31,32,33,-1,34,35,36,37,-1,22,23,24,25,-1,42,43,44,45,-1,38,39,40,41,-1,50,51,52,53,-1,
54,55,56,57,-1,58,59,60,61,-1,62,63,64,65,-1,66,67,68,69,-1,70,71,72,73,-1,74,75,76,77,-1,78,79,80,81,-1,82,83,84,85,-1,86,87,88,89,-1,90,91,92,93,-1,94,95,96,97,-1,98,99,100,101,-1,102,103,104,105,-1,106,107,108,109,-1,
110,111,112,113,-1,114,115,116,117,-1,118,119,120,121,-1,122,123,124,125,-1,126,127,128,129,-1,130,131,132,133,-1,134,135,136,137,-1,138,139,140,141,-1,142,143,144,145,-1,146,147,148,149,-1,150,151,152,153,-1,
154,155,156,157,-1,158,159,160,161,-1,162,163,164,165,-1,166,167,168,169,-1,170,171,172,173,-1,174,175,176,177,-1,178,179,180,181,-1,182,183,184,185,-1,186,187,188,189,-1,190,191,192,193,-1,194,195,196,197,-1,
198,199,200,201,-1,202,203,204,205,-1 ]}},
DEF X Shape { appearance Appearance { texture ImageTexture { url "images/bartur.jpg" }}
geometry Box { size 3.6 .01 4.9 }},
DEF H Shape { appearance Appearance { material USE Shader37_0 }
geometry IndexedFaceSet { coord Coordinate { point [ 1.8 -0.3 2.9,1.8 -0.3 -2.5,1.8 -2.77556e-017 -2.5,0.05 -0.15 2.9,0.05 -0.15 -2.5,-0.05 -0.15 -2.5,-0.05 -0.15 2.9,-0.05 -0.05 2.9,-0.05 -0.15 2.9,-0.05 -0.15 -2.5,-0.05 -0.05 -2.5,
0.05 -0.15 -2.5,0.05 -0.15 2.9,0.05 -0.05 2.9,0.05 -0.05 -2.5,2.68644 -0.3 2.3,-2.71356 -0.3 2.3,-2.71356 -0.3 2.9,2.68644 -0.3 2.9,-2.71356 -0.3 2.3,2.68644 -0.3 2.3,2.68644 0 2.3,-2.71356 0 2.3,-1.8 -0.3 2.9,-1.8 -0.3 -2.5,-2.71356 -0.3 -2.5,
-2.71356 -0.3 2.9,-1.8 -0.3 -2.5,-1.8 -0.3 2.9,-1.8 0 2.9,-1.8 -2.77556e-017 -2.5,2.68644 -0.3 2.9,2.68644 -0.3 -2.5,1.8 -0.3 -2.5,1.8 -0.3 2.9,1.8 0 2.9 ]}
normal Normal { vector [ -1 0 0,0 -1 -6.10366e-017,-1 0 0,1 0 0,0 -1 0,0 0 -1,3.64581e-016 -1 -6.7515e-017,1 0 0,-3.75736e-016 -1 -5.7984e-017 ]}
normalPerVertex FALSE ccw FALSE creaseAngle -4.31602e+008
coordIndex [ 35,0,1,2,-1,3,4,5,6,-1,7,8,9,10,-1,11,12,13,14,-1,15,16,17,18,-1,19,20,21,22,-1,23,24,25,26,-1,27,28,29,30,-1,31,32,33,34,-1 ]}}]}]},
Transform { translation 0 -19.5 1.42527 rotation 0 0 1 3.14159
scale 0.567784 0.567784 0.567784
children [
Group {
children [ 
    DEF TSPlaza1 TouchSensor {},
 USE R, USE X, USE H ]}]},

Transform { translation -14 14 0
children Shape { appearance Appearance { texture ImageTexture { url "images/barbo1.jpg" }}
geometry Box { size 14 14 .01 }}},
Transform { translation 0 14 0
children Shape { appearance Appearance { texture ImageTexture { url "images/barbo2.jpg" }}
geometry Box { size 14 14 .01 }}},
Transform { translation 14 14 0
children Shape { appearance Appearance { texture ImageTexture { url "images/barbo3.jpg" }}
geometry Box { size 14 14 .01 }}},
Transform { translation 1 20 6 rotation 1 0 0 1.5708
children Shape { appearance Appearance { texture ImageTexture { url "images/tur1.jpg" }}
geometry Box { size 8 8 .01 }}},
Transform { translation 1.5 -20 2.5 rotation 0 0.707107 0.707107 3.14159
children Shape { appearance Appearance { texture ImageTexture { url "images/tur2a.jpg" }}
geometry Box { size 5 5 .01 }}},
Transform { translation -3.5 -20 2.5 rotation 0 0.707107 0.707107 3.14159
children Shape { appearance Appearance { texture ImageTexture { url "images/tur2b.jpg" }}
geometry Box { size 5 5 .01 }}},
Transform { translation -8.5 -20 2.5 rotation 0 0.707107 0.707107 3.14159
children Shape { appearance Appearance { texture ImageTexture { url "images/tur2c.jpg" }}
geometry Box { size 5 5 .01 }}},
Transform { translation -13.5 -20 2.5 rotation 0 0.707107 0.707107 3.14159
children Shape { appearance Appearance { texture ImageTexture { url "images/tur2d.jpg" }}
geometry Box { size 5 5 .01 }}},
Transform { translation -18.5 -20 2.5 rotation 0 0.707107 0.707107 3.14159
children Shape { appearance Appearance { texture ImageTexture { url "images/tur2e.jpg" }}
geometry Box { size 5 5 .01 }}},
Transform { translation -19.5 -15.4904 4.52609 rotation 0.57735 0.57735 0.57735 2.0944
children Shape { appearance Appearance { texture ImageTexture { url "images/buh1.jpg" }}
geometry Box { size 9.05921 9.05921 .01 }}},
Transform { translation -14 0 0
children Shape { appearance Appearance { texture ImageTexture { url "images/barbo4.jpg" }}
geometry Box { size 14 14 .01 }}},
Transform { children Shape { appearance Appearance { texture ImageTexture { url "images/barbo5.jpg" }}
geometry Box { size 14 14 .01 }}},
Transform { translation 14 0 0
children Shape { appearance Appearance { texture ImageTexture { url "images/barbo6.jpg" }}
geometry Box { size 14 14 .01 }}},
Transform { translation -14 -14 0
children Shape { appearance Appearance { texture ImageTexture { url "images/barbo7.jpg" }}
geometry Box { size 14 14 .01 }}},
Transform { translation 0 -14 0
children Shape { appearance Appearance { texture ImageTexture { url "images/barbo8.jpg" }}
geometry Box { size 14 14 .01 }}},
Transform { translation 14 -14 0
children Shape { appearance Appearance { texture ImageTexture { url "images/barbo9.jpg" }}
geometry Box { size 14 14 .01 }}},
Shape { appearance Appearance { material Material { ambientIntensity 0.100229
diffuseColor 0.139535 0.0746806 0.0864723 shininess 0 }}
geometry IndexedFaceSet { coord Coordinate { point [ 20 5 4,20 -1 4,20 -1 3,20 5 3,20 5 1,20 -1 1,20 -1 0,20 5 0 ]}
normal Normal { vector [ -1 0 0,-1 0 0 ]}
normalPerVertex FALSE ccw FALSE creaseAngle -4.31602e+008
coordIndex [ 0,1,2,3,-1,4,5,6,7,-1 ]}},
Transform { translation -15 0 0 children [
DEF T Shape { appearance Appearance { material USE Shader20_17 }
geometry IndexedFaceSet { coord Coordinate { point [ 0.25 -20 4.8,-0.25 -20 4.8,-0.25 -9.6 4.8,0.25 -9.6 4.8,-0.25 -9.6 6.8,0.25 -9.6 6.8,0.25 -20 5,0.25 -20 4.8,0.25 -9.6 4.8,0.25 -10 5,0.25 -9.6 6.8,0.25 -10 6.8,-0.25 -20 4.8,-0.25 -20 5,
-0.25 -10 5,-0.25 -9.6 4.8,-0.25 -10 6.8,-0.25 -9.6 6.8 ]}
normal Normal { vector [ 0 0 -1,0 1 0,1 0 0,1 0 0,-1 0 0,-1 0 0 ]}
normalPerVertex FALSE ccw FALSE creaseAngle -4.31602e+008
coordIndex [ 3,2,1,0,-1,5,4,2,3,-1,9,8,7,6,-1,11,10,8,9,-1,15,14,13,12,-1,17,16,14,15,-1 ]}}]},
Transform { translation -9 0 0 children USE T },
Transform { translation -3 0 0 children USE T },
Transform { translation 3 0 0 children USE T },
Transform { translation -4.5 -9.89988 5.09594 scale 30 0.2 0.2
children DEF B Shape { appearance Appearance { material USE Shader20_17 }
geometry IndexedFaceSet { coord Coordinate { point [ -0.5 0.5 -0.5,0.5 0.5 -0.5,0.5 0.5 0.5,-0.5 0.5 0.5,0.5 0.5 -0.5,-0.5 0.5 -0.5,-0.5 -0.5 -0.5,0.5 -0.5 -0.5 ]}
normal Normal { vector [ 0 1 0,0 0 -1 ]}
normalPerVertex FALSE ccw FALSE creaseAngle -4.31602e+008
coordIndex [ 0,1,2,3,-1,4,5,6,7,-1 ]}}},
Transform { translation -4.5 -19.912 4.88853 scale 30 0.2 0.2 children USE B },
Transform { translation -4.5 -9.89988 5.59594 scale 30 0.2 0.2 children USE B },
Transform { translation -4.5 -9.89988 6.09594 scale 30 0.2 0.2 children USE B },
Transform { translation -4.5 -9.89988 6.59594 scale 30 0.2 0.2 children USE B },
Transform { translation -13.8911 9.32734 0.5 rotation 0 0 1 0.951204
children [
Transform { translation -3 0 0
children Shape { appearance Appearance { texture ImageTexture { url "images/bottom1.jpg" }}
geometry Box { size 6 6 .01 }}},
Transform { translation -6 0 3 rotation 0.57735 0.57735 0.57735 2.0944
children Shape { appearance Appearance { texture ImageTexture { url "images/left.jpg" }}
geometry Box { size 6 6 .01 }}},
Transform { translation 6 0 3 rotation -0.57735 0.57735 0.57735 4.18879
children Shape { appearance Appearance { texture ImageTexture { url "images/right.jpg" }}
geometry Box { size 6 6 .01 }}},
Transform { translation 0 0 6 rotation 1 0 0 3.1415
children Shape { appearance Appearance { material DEF Shader2_19 Material { ambientIntensity 0 diffuseColor 0 0 0 shininess 0 }}
geometry Box { size 12 6 .01 }}},
Transform { translation 0 -3 -0.25 rotation 1 0 0 1.5708
children Shape { appearance Appearance { material USE Shader2_19 }
geometry Box { size 12 .5 .01 }}},
Transform { translation 3 0 0
children Shape { appearance Appearance { texture ImageTexture { url "images/bottom2.jpg" }}
geometry Box { size 6 6 .01 }}},
Transform { translation -3 3 3 rotation 1 0 0 1.5708
children Shape { appearance Appearance { texture ImageTexture { url "images/back1.jpg" }}
geometry Box { size 6 6 .01 }}},
Transform { translation 3 3 3 rotation 1 0 0 1.5708
children Shape { appearance Appearance { texture ImageTexture { url "images/back2.jpg" }}
geometry Box { size 6 6 .01 }}}]},
Transform { translation 20 9 2 rotation -0.57735 0.57735 0.57735 4.18879
children DEF W Shape { appearance Appearance { texture ImageTexture { url "images/wand2.jpg" }}
geometry Box { size 4 4 .01 }}},
Transform { translation 20 -5 2 rotation -0.57735 -0.57735 0.57735 2.0944
children USE W },
Transform { translation 14 3 4
children [
Shape { appearance Appearance { material USE Shader37_0 }
geometry IndexedFaceSet { coord Coordinate { point [ -6 9 8,-6 -11 8,-9.20547 -11 2,-9.20547 9 2,-9.20547 9 2,6 9 0,6 9 8,-6 9 8,6 -11 8,6 -11 0,-9.20547 -11 2,-6 -11 8 ]}
normal Normal { vector [ -0.882019 0 0.471214,0 1 0,0 -1 0 ]}
normalPerVertex FALSE ccw FALSE creaseAngle -4.31602e+008
coordIndex [ 0,1,2,3,-1,4,5,6,7,-1,8,9,10,11,-1 ]}}]},
Transform { translation -7.80698 13.1734 0 rotation 0 0 1 4.48201 scale 1.44512 1.44512 20 children [
DEF Z Shape { appearance Appearance { material USE Shader37_0 }
geometry IndexedFaceSet { coord Coordinate { point [ 0.5 0 0,0.5 0 1,0.46194 0.191342 1,0.46194 0.191342 0,0.353553 0.353553 1,0.353553 0.353553 0,0.191342 0.46194 1,0.191342 0.46194 0,-6.93889e-018 0.5 1,-6.93889e-018 0.5 0,-0.191342 0.46194 1,
-0.191342 0.46194 0,-0.353553 0.353553 1,-0.353553 0.353553 0,-0.46194 0.191342 1,-0.46194 0.191342 0,-0.5 0 1,-0.5 0 0 ]}
normal Normal { vector [ 0.980785 0.19509 0,0.83147 0.55557 0,0.55557 0.83147 0,0.19509 0.980785 0,-0.19509 0.980785 0,-0.55557 0.83147 0,-0.83147 0.55557 0,-0.980785 0.19509 0 ]}
normalPerVertex FALSE ccw FALSE creaseAngle -4.31602e+008
coordIndex [ 0,1,2,3,-1,3,2,4,5,-1,5,4,6,7,-1,7,6,8,9,-1,9,8,10,11,-1,11,10,12,13,-1,13,12,14,15,-1,15,14,16,17,-1 ]}}]},
Transform { translation 11.9646 12.1754 0 rotation 0 0 1 2.83247 scale 1.13137 1.13137 10 children USE Z },
Transform { translation 18.9578 12.0162 0 rotation 0 0 1 2.76621 scale 2.90556 2.90556 5 children USE Z },
Transform { translation 18.9578 -8.00411 0 rotation 0 0 1 0.387084 scale 2.90556 2.90556 5 children USE Z },
Transform { translation 20 6 0 rotation 0 0 1 1.5708 scale 2 2 4 children USE Z },
Transform { translation 20 -2 0 rotation 0 0 1 1.5708 scale 2 2 4 children USE Z },
Transform { translation 11.5059 -9.00888 0 rotation 0 0 1 0.784009 scale 2.8369 2.8369 12 children USE Z },
Transform { translation -20 -9.5 0 rotation 0 0 1 4.71239 scale 3 3 20 children USE Z },
Transform { translation -15.8227 2.06143 0 rotation 0 0 1 3.77076 scale 2.21202 2.21202 20 children USE Z },
Transform { translation 14.7097 2 4.69432 rotation 0 1 0 0.130899
children Shape { appearance Appearance { texture ImageTexture { url "./images/spots1.jpg" }
textureTransform TextureTransform { scale 2 2 }}
geometry Box { size 20 20 .01 }}},
Transform { translation 20 4 2 rotation -0.57735 0.57735 0.57735 4.18879
children Shape { appearance Appearance { texture ImageTexture { url "./images/theke2.jpg" }}
geometry Box { size 2 2 .01 }}},
Transform { translation 15 12 2.5 rotation 0.57735 -0.57735 0.57735 2.0944 children
DEF FleckL Shape { appearance Appearance { texture ImageTexture { url "./images/fleck.jpg" }}
geometry Box { size 5 5 .01 }}}
Transform { translation 15 -8 2.5 rotation 0.57735 -0.57735 0.57735 2.0944 children
DEF FleckR Shape { appearance Appearance { texture ImageTexture { url "./images/fleck.jpg" }}
geometry Box { size 5 5 .01 }}}
Transform { translation 20 2 2 rotation -0.57735 0.57735 0.57735 4.18879
children Shape { appearance Appearance { texture ImageTexture { url "./images/theke3.jpg" }}
geometry Box { size 2 2 .01 }}},


Transform { translation 20 0 2 rotation -0.57735 0.57735 0.57735 4.18879
children Shape { appearance Appearance { texture ImageTexture { url "./images/theke1.jpg" }}
geometry Box { size 2 2 .01 }}},
Shape { appearance Appearance { texture DEF twand1 ImageTexture { url "./images/wand1.jpg" }}
geometry IndexedFaceSet { coord Coordinate { point [ -2.49964 20.0006 8,-2.49964 20.0006 0,-7.64194 13.8722 0,-7.64194 13.8722 8 ]}
normal Normal { vector 0.766044 -0.642788 0 }
normalPerVertex FALSE ccw FALSE creaseAngle -4.31602e+008
coordIndex [ 0,1,2,3,-1 ]}},

Transform { translation 8.21416 16.1698 5 rotation -0.684791 -0.249244 0.684791 3.63013
children DEF P Shape { appearance Appearance { texture USE twand1 }
geometry Box { size 10 10 .01 }}},

Transform { translation 7.17594 -15.0016 6 rotation 0.796207 0.427817 -0.427817 4.48644
children USE P },
Transform{ rotation 0 0 1 1.5708 children[
Shape { appearance Appearance { texture USE twand1 }
geometry IndexedFaceSet { coord Coordinate { point [ 1.40931 16.7105 10,1.40931 16.7105 0,-8.04018 19.9827 0,-8.04018 19.9827 10 ]}
normal Normal { vector -0.327218 -0.944949 0 }
normalPerVertex FALSE ccw FALSE creaseAngle -4.31602e+008
coordIndex[ 0,1,2,3,-1 ]}}]},
Transform{rotation 0 0 1 1.5708 children[
Shape { appearance Appearance { texture USE twand1 }
geometry IndexedFaceSet { coord Coordinate { point [ 2.69779 14.9294 18.5117,12.4724 7.96826 18.5117,12.4724 7.96826 6.51174,2.69779 14.9294 6.51174 ]}
# normal Normal { vector -0.580097 -0.814547 0 }
normalPerVertex FALSE ccw FALSE creaseAngle -4.31602e+008
coordIndex [ 0,1,2,3,-1 ]}}]},
Shape { appearance Appearance { texture ImageTexture { url "./images/gitter.jpg" }
textureTransform TextureTransform { scale 3 1 }}
geometry IndexedFaceSet { coord Coordinate { point [ -19.5 -10 5,-19.5 -20 5,10.5 -20 5,10.5 -10 5 ]}
normal Normal { vector 0 0 -1 }
normalPerVertex FALSE ccw FALSE creaseAngle -4.31602e+008
coordIndex [ 0,1,2,3,-1 ]}}]}

Transform{ translation -18 0 15.5 rotation 0 1 0 1.5708 children [
Transform{rotation 1 0 0 -1.5708  scale 1.5 1.5 1.5 children [
# musicbox
# Inline{url"musicbox.wrl"} 

# Historical: Anchor url "audio/audio.htm" - blanked the HTML audio frame to mute.
# CTR has no such frame and the jukebox has no audio, so this button is kept as
# an inert historical control: the geometry and TouchSensor stay, and no ROUTE
# leaves it.
Group { children [
DEF TouchMute TouchSensor { description "Mute Sound" },
Transform{translation 0 0.85945 -2.34753 rotation 1 0 0 1.67028 scale 4.36686 4.36686 4.36686
children[
Shape { appearance Appearance { texture ImageTexture { url "./images/box1a.jpg" }}
geometry IndexedFaceSet { coord Coordinate { point [ -0.0782398 0.5744 0.101698,-0.0782398 0.730879 0.101698,0.0782398 0.730879 0.101698,0.0782398 0.5744 0.101698 ]}
texCoord TextureCoordinate { point [ 0 0,0 1,1 1,1 0 ]}
solid FALSE normalPerVertex TRUE ccw FALSE creaseAngle -4.31602e+008
coordIndex [ 0, 1, 2, 3, -1 ]}}]}]},

# Historical: Anchor url "audio/audio0.htm" parameter "target=audio" - an HTML
# popup into a frame CTR has no equivalent for. The popup is removed; the button
# now only updates the title sign. See the JUKEBOX AUDIO note below.
DEF Taste0Button Group { children [
Transform { translation 1.5 -0.287466 0.657493 rotation -1 0 0 0.886627
children [
DEF TouchTaste0 TouchSensor {}
Shape { appearance Appearance { material DEF Shader_0 Material { ambientIntensity 0.50636 emissiveColor 0.41865 0.37041 0.324572 shininess 0 }}
geometry DEF Taste IndexedFaceSet { coord Coordinate { point [ -1.22011 -0.0476074 0.351732,-1.22011 -0.112139 0.350338,-1.22011 -0.107026 0.375658,-1.22011 -0.0476074 0.351732,-1.22011 -0.0927373 0.397177,-1.22011 -0.0476074 0.351732,-1.22011 -0.0634685 0.414127,-1.22011 -0.0476074 0.351732,-1.22011 -0.0217286 0.412012,-1.22011 -0.0476074 0.351732,-1.22011 -0.0630228 0.286429,-1.22011 -0.0927373 0.303499,-1.22011 -0.0476074 0.351732,-1.22011 -0.107026 0.325018,-1.22011 -0.112139 0.350338,-1.22011 -0.0476074 0.351732,-1.22011 -0.0476074 0.351732,-1.22011 -0.0268633 0.286892,-1.31045 -0.0476074 0.351732,-1.31045 -0.0927373 0.303499,-1.31045 -0.0630228 0.286429,-1.31045 -0.0476074 0.351732,-1.31045 -0.0268633 0.286892,-1.31045 -0.0476074 0.351732,-1.31045 -0.112139 0.350338,-1.31045 -0.107026 0.325018,-1.31045 -0.0476074 0.351732,-1.31045 -0.0476074 0.351732,-1.31045 -0.0217286 0.412012,-1.31045 -0.0634685 0.414127,-1.31045 -0.0476074 0.351732,-1.31045 -0.0927373 0.397177,-1.31045 -0.0476074 0.351732,-1.31045 -0.107026 0.375658,-1.31045 -0.0476074 0.351732,-1.31045 -0.0927373 0.303499,-1.22011 -0.0927373 0.303499,-1.22011 -0.0630228 0.286429,
-1.31045 -0.0630228 0.286429,-1.22011 -0.0268633 0.286892,-1.31045 -0.0268633 0.286892,-1.31045 -0.112139 0.350338,-1.22011 -0.112139 0.350338,-1.22011 -0.107026 0.325018,-1.31045 -0.107026 0.325018,-1.31045 -0.0217286 0.412012,-1.22011 -0.0217286 0.412012,-1.22011 -0.0634685 0.414127,-1.31045 -0.0634685 0.414127,-1.22011 -0.0927373 0.397177,-1.31045 -0.0927373 0.397177,-1.22011 -0.107026 0.375658,-1.31045 -0.107026 0.375658 ]}
solid FALSE normalPerVertex TRUE ccw FALSE creaseAngle -4.31602e+008
coordIndex [ 0, 1, 2, -1, 3, 2, 4, -1,5, 4, 6, -1, 7, 6, 8, -1,9, 10, 11, -1, 12, 13, 14, -1,15, 11, 13, -1, 16, 17, 10, -1,18, 19, 20, -1, 21, 20, 22, -1,23, 24, 25, -1, 26, 25, 19, -1,27, 28, 29, -1, 30, 29, 31, -1, 32, 31, 33, -1, 34, 33, 24, -1, 35, 36, 37, 38, -1, 38, 37, 39, 40, -1, 41, 42, 43, 44, -1, 44, 43, 36, 35, -1, 45, 46, 47, 48,-1, 48, 47, 49, 50, -1, 50, 49,51, 52, -1, 52, 51, 42, 41, -1 ]}}]}]},
Transform { translation 0 0.85945 3 rotation 1 0 0 1.67028 scale 4.3467 3.6918 2.66207
children [
Shape { appearance Appearance { texture ImageTexture { url "./images/box1b.jpg" }}
geometry IndexedFaceSet { coord Coordinate { point [ -0.0782398 -0.522049 0.335118,-0.0782398 -0.36557 0.335118,0.0782398 -0.36557 0.335118,0.0782398 -0.522049 0.335118 ]}
texCoord TextureCoordinate { point [ 0 0,0 1,1 1,1 0 ]}
solid FALSE normalPerVertex TRUE ccw FALSE creaseAngle -4.31602e+008 coordIndex [ 0, 1, 2, 3, -1 ]}}]},
Transform { translation 0 0 5.6 rotation 0 1 0 3.14159
children [
Shape { appearance Appearance { material USE Shader_0 }
geometry IndexedFaceSet { coord Coordinate { point [ -0.192911 -0.0470195 3.94814,0.192911 -0.0470195 3.94814,0.039441 -0.0906577 3.85864,-0.039441 -0.0906577 3.85864,0.221651 -0.0406602 3.94017,0.127471 -0.0775035 3.87248,0.261544 -0.0329399 3.92657,0.176202 -0.0652129 3.88888,-0.22049 -0.0406564 3.9402,-0.127471 -0.0775035 3.87248,-0.176202 -0.0652129 3.88888,-0.261544 -0.0329399 3.92657 ]}
solid FALSE normalPerVertex TRUE ccw FALSE creaseAngle -4.31602e+008
coordIndex [ 0, 1, 2, 3, -1, 1, 4, 5,2, -1, 4, 6, 7, 5, -1, 8,0, 3, 9, -1, 8, 9, 10, 11,-1 ]}}]},

# Historical: Anchor url "audio/audio1.htm" parameter "target=audio" - an HTML
# popup into a frame CTR has no equivalent for. The popup is removed; the button
# now only updates the title sign. See the JUKEBOX AUDIO note below.
DEF Taste1Button Group { children [
Transform { translation 1.3421 -0.287466 0.657493 rotation -1 0 0 0.886627
children [
DEF TouchTaste1 TouchSensor {}
Shape { appearance Appearance { material USE Shader_0 }
geometry USE Taste }]}]},

# Historical: Anchor url "audio/audio2.htm" parameter "target=audio" - an HTML
# popup into a frame CTR has no equivalent for. The popup is removed; the button
# now only updates the title sign. See the JUKEBOX AUDIO note below.
DEF Taste2Button Group { children [
Transform { translation 1.1821 -0.287466 0.657493 rotation -1 0 0 0.886627
children [
DEF TouchTaste2 TouchSensor {}
Shape { appearance Appearance { material USE Shader_0 }
geometry USE Taste }]}]},

# Historical: Anchor url "audio/audio3.htm" parameter "target=audio" - an HTML
# popup into a frame CTR has no equivalent for. The popup is removed; the button
# now only updates the title sign. See the JUKEBOX AUDIO note below.
DEF Taste3Button Group { children [
Transform { translation 1.0279 -0.287466 0.657493 rotation -1 0 0 0.886627
children [
DEF TouchTaste3 TouchSensor {}
Shape { appearance Appearance { material USE Shader_0 }
geometry USE Taste }]}]},

Shape { appearance Appearance { material Material { ambientIntensity 0.116279
diffuseColor 0.348837 0 0 specularColor 0.854922 0.0531558 0.0531558 shininess 0.546965 }}
geometry IndexedFaceSet { coord Coordinate { point [ 0.391899 0.107112 1.594,0.372098 0.0670026 0.936785,0.351978 0.058799 0.936785,0.383274 0.0938877 1.594,0.403467 0.124604 1.594,0.380834 0.0834283 0.936785,0.41403 0.140576 1.594,0.382734 0.105487 0.936785,-0.372098 0.0670026 0.936785,-0.39507 0.111906 1.594,-0.383274 0.0938877 1.594,-0.351978 0.058799 0.936785,-0.380834 0.0834283 0.936785,-0.406101 0.128587 1.594,-0.382734 0.105487 0.936785,-0.41403 0.140576 1.594,-0.434272 0.116626 0.0292041,-0.378766 0.00820367 0.889841,-0.361548 0 0.858546,-0.422495 0.106574 0.0292041,-0.451351 0.131203 0.0292041,-0.386242 0.0246293 0.889841,-0.453251 0.153262 0.0292041,-0.387867 0.0466881 0.889841, 0.378766 0.00820367 0.889841,0.442616 0.114778 0.0292041,0.422495 0.106574 0.0292041,0.361548 0 0.858546,0.386242 0.0246293 0.889841,0.448482 0.136005 0.0292041,0.387867 0.0466881 0.889841,0.453251 0.153262 0.0292041,-0.354959 0 0.827062,
 -0.361548 0 0.858546,0.361548 0 0.858546,0.354959 0 0.827062,0.422495 0.106574 0.0292041,0.366785 0.106574 0.0959796,-0.422495 0.106574 0.0292041,-0.366785 0.106574 0.0959796,-0.361548 0 0.858546,-0.354959 0 0.827062,-0.351978 0.058799 0.936785,-0.341893 0.0938877 0.974118,0.341893 0.0938877 0.974118,0.351978 0.058799 0.936785,0.359492 0.0938877 1.58622,0.383274 0.0938877 1.594,-0.359492 0.0938877 1.58622,-0.383274 0.0938877 1.594,-0.341893 0.0938877 0.974118,-0.351978 0.058799 0.936785,-0.453251 0.153262 0.0292041,-0.453251 0.625918 0.0875661,-0.422495 0.625918 0.811602,-0.387867 0.0466881 0.889841,-0.438143 0.521881 1.49272,-0.41403 0.140576 1.594,-0.382734 0.105487 0.936785,-0.406847 0.686395 0.993805, 0.41403 0.140576 1.594,0.438143 0.521881 1.49272,0.406847 0.686395 0.993805,0.382734 0.105487 0.936785,0.192911 -0.0470195 1.65186,0.201657 0.464988 1.62577,-0.201657 0.464988 1.62577,-0.192911 -0.0470195 1.65186,-0.221651 0.419792 1.6562,-0.221651 -0.0406602 1.65983,-0.233574 0.394157 1.66808,-0.261544 -0.0329399 1.67343,-0.216456 0.360066 1.68132,
-0.176202 -0.0652129 1.71112,-0.200647 0.313119 1.69398,-0.127471 -0.0775035 1.72752,-0.1255 0.250646 1.70476,-0.039441 -0.0906577 1.74136,0.1255 0.250646 1.70476,0.039441 -0.0906577 1.74136,0.200647 0.313119 1.69398,0.127471 -0.0775035 1.72752,0.216456 0.360066 1.68132,0.176202 -0.0652129 1.71112,0.233574 0.394157 1.66808,0.261544 -0.0329399 1.67343,0.22049 0.419792 1.65565,0.22049 -0.0406564 1.6598,0.201657 0.464988 1.62577,0.192911 -0.0470195 1.65186,0.387867 0.0466881 0.889841,0.422495 0.625918 0.811602,0.451841 0.625918 0.0875661,0.453251 0.153262 0.0292041 ]}
solid FALSE normalPerVertex TRUE ccw FALSE creaseAngle -4.31602e+008
coordIndex [ 0, 1, 2, 3, -1, 4, 5, 1,0, -1, 6, 7, 5, 4, -1, 8,9, 10, 11, -1, 12, 13, 9, 8,-1, 14, 15, 13, 12, -1, 16, 17,18, 19, -1, 20, 21, 17, 16, -1,22, 23, 21, 20, -1, 24, 25, 26,27, -1, 28, 29, 25, 24, -1, 30, 31, 29, 28, -1, 32, 33, 34, 35,-1, 35, 34, 36, 37, -1, 37, 36, 38, 39, -1, 39, 38, 40, 41, -1, 42, 43, 44, 45, -1, 45, 44, 46, 47, -1, 47, 46, 48, 49, -1, 49, 48, 50, 51, -1, 52, 53, 54, 55,-1, 56, 57, 58, 59, -1, 60, 61,62, 63, -1, 64, 65, 66, 67, -1,67, 66, 68, 69, -1, 69, 68, 70,71, -1, 71, 70, 72, 73, -1, 73,72, 74, 75, -1, 75, 74, 76, 77,-1, 77, 76, 78, 79, -1, 79, 78,80, 81, -1, 81, 80, 82, 83, -1,83, 82, 84, 85, -1, 85, 84, 86,87, -1, 87, 86, 88, 89, -1, 90,91, 92, 93, -1 ]}},
Shape { appearance Appearance { material Material { ambientIntensity 0.618997
diffuseColor 0.651163 0.635639 0.570189 specularColor 0.72093 0.69157 0.567779 shininess 0.7 }}
geometry IndexedFaceSet { coord Coordinate { point [ -0.392197 0.277034 1.64173,-0.446205 0.106003 1.6253,-0.490602 0.596445 1.57179,-0.438143 0.596445 1.61837,-0.313149 0.176623 1.70024,-0.402869 0.0142344 1.6253,-0.292031 0.0938877 1.68276,-0.147794 -0.0647424 1.6253,0.292031 0.0938877 1.68276,0.147794 -0.0647424 1.6253,0.30791 0.176623 1.70024,0.402869 0.0142344 1.6253,0.392197 0.277034 1.64173,0.446205 0.106003 1.6253,0.438143 0.596445 1.61837,0.490602 0.596445 1.57179,-0.438143 0.521881 1.49272,-0.490602 0.596445 1.57179,-0.446205 0.106003 1.6253,-0.41403 0.140576 1.594,-0.402869 0.0142344 1.6253,-0.383154 0.0938877 1.594,-0.147794 -0.0647424 1.6253,-0.312959 0.0938877 1.594,0.147794 -0.0647424 1.6253,0.312959 0.0938877 1.594,0.402869 0.0142344 1.6253,0.383154 0.0938877 1.594,0.446205 0.106003 1.6253,0.41403 0.140576 1.594,0.490602 0.596445 1.57179,0.438143 0.521881 1.49272,-0.341662 0.100553 0.784235,
-0.354959 0 0.827062,0.354959 0 0.827062,0.341662 0.100553 0.784235,0.366785 0.106574 0.0959796,0.341662 0.16842 0.104289,-0.366785 0.106574 0.0959796,-0.341662 0.16842 0.104289,-0.354959 0 0.827062,-0.341662 0.100553 0.784235,-0.406847 -0.0370062 0.929438,0.406847 -0.0370342 0.929438,0.0831805 -0.117551 0.804254,-0.0831805 -0.117551 0.804254,0.467459 -0.0268312 0.916447,0.268835 -0.093683 0.804505,0.51488 -0.0128229 0.893385,0.371608 -0.0713819 0.829484,-0.465011 -0.0268244 0.916501,-0.268835 -0.093683 0.804505,-0.371608 -0.0713819 0.829484,-0.51488 -0.0128229 0.893385,-0.341893 0.0938877 0.974118,-0.340085 0.163174 0.993623,0.340085 0.163174 0.993623,0.341893 0.0938877 0.974118,0.340085 0.105798 1.56846,0.359492 0.0938877 1.58622,-0.340085 0.105798 1.56846,-0.359492 0.0938877 1.58622,-0.340085 0.163174 0.993623,-0.341893 0.0938877 0.974118,-0.313149 0.176623 1.70024,0.30791 0.176623 1.70024,0.292031 0.0938877 1.68276,-0.292031 0.0938877 1.68276,-0.438143 0.596445 1.61837,0.438143 0.596445 1.61837,0.392197 0.277034 1.64173,-0.392197 0.277034 1.64173,0.451841 0.625918 0.0875661,0.547161 0.644657 0,0.493545 0.17959 0,
0.453251 0.153262 0.0292041,0.45886 0.0776714 0,0.442616 0.114778 0.0292041,0.147794 0.0469067 0,0.422495 0.106574 0.0292041,-0.147794 0.0469067 0,-0.422495 0.106574 0.0292041,-0.45886 0.0776714 0,-0.451351 0.131203 0.0292041,-0.493545 0.17959 0,-0.453251 0.153262 0.0292041,-0.547161 0.644657 0,-0.453251 0.625918 0.0875661,0.30791 0.176623 1.70024,-0.313149 0.176623 1.70024,-0.392197 0.277034 1.64173,0.392197 0.277034 1.64173,-0.406847 -0.0370062 0.929438,-0.425291 0.686395 0.993805,0.425291 0.686395 0.993805,0.406847 -0.0370342 0.929438,0.456545 0.702043 0.957828,0.467459 -0.0268312 0.916447,0.493806 0.707921 0.917678,0.51488 -0.0128229 0.893385,0.478501 0.697771 0.873044,0.371608 -0.0713819 0.829484,0.443187 0.674131 0.838246,0.268835 -0.093683 0.804505,0.422495 0.625918 0.811602,0.0831805 -0.117551 0.804254,-0.422495 0.625918 0.811602,-0.0831805 -0.117551 0.804254,-0.448659 0.674131 0.838246,-0.268835 -0.093683 0.804505,-0.478501 0.697771 0.873044,-0.371608 -0.0713819 0.829484,-0.493806 0.707921 0.917678,
-0.51488 -0.0128229 0.893385,-0.454155 0.702043 0.959044,-0.465011 -0.0268244 0.916501,-0.425291 0.686395 0.993805,-0.406847 -0.0370062 0.929438 ]}
solid FALSE normalPerVertex TRUE ccw FALSE creaseAngle -4.31602e+008
coordIndex [ 0, 1, 2, 3, -1, 4, 5, 1,0, -1, 6, 7, 5, 4, -1, 8,9, 7, 6, -1, 10, 11, 9, 8,-1, 12, 13, 11, 10, -1, 14, 15,13, 12, -1, 16, 17, 18, 19, -1,19, 18, 20, 21, -1, 21, 20, 22,23, -1, 23, 22, 24, 25, -1, 25,24, 26, 27, -1, 27, 26, 28, 29,-1, 29, 28, 30, 31, -1, 32, 33, 34, 35, -1, 35, 34, 36, 37, -1, 37, 36, 38, 39, -1, 39, 38, 40, 41, -1, 42, 43, 44, 45, -1, 43, 46, 47, 44, -1, 46, 48, 49, 47,-1, 50, 42, 45, 51, -1, 50, 51,52, 53, -1, 54, 55, 56, 57, -1,57, 56, 58, 59, -1, 59, 58, 60,61, -1, 61, 60, 62, 63, -1, 64,65, 66, 67, -1, 68, 69, 70, 71,
-1, 70, -1, 70, -1, 72, 73, 74,75, -1, 75, 74, 76, 77, -1, 77,76, 78, 79, -1, 79, 78, 80, 81,-1, 81, 80, 82, 83, -1, 83, 82,84, 85, -1, 85, 84, 86, 87, -1,88, 89, 90, 91, -1, 92, 93, 94,95, -1, 95, 94, 96, 97, -1, 97,96, 98, 99, -1, 99, 98, 100, 101,-1, 101, 100, 102, 103, -1, 103, 102,104, 105, -1, 105, 104, 106, 107, -1,107, 106, 108, 109, -1, 109, 108, 110,111, -1, 111, 110, 112, 113, -1, 113,112, 114, 115, -1, 115, 114, 116, 117,-1 ]}}

Transform { 
translation 0.6 0 1.5  
scale 0.1 0.1 0.1 
rotation 1 0 0 1.57 children [
Appearance { material Material { diffuseColor  1 1 1 }}
DEF CurTitle Text {}
]}
Transform { 
translation -0.6 0 1.9  
scale 0.1 0.1 0.1 
rotation 1 0 0 1.57 children [
Appearance { material Material { diffuseColor  1 1 1 }}
DEF TitleDescription Text {}
]}
]}]}]}

# end of musicbox

Transform { translation -7 1.3 19.5 rotation 0 1 0 3.1416 scale 1 1 1
children DEF Slot1 Slotmachine { }
}
DEF set_FleckR Script {
eventIn SFTime rot
eventIn SFTime blau
eventIn SFTime ohne
eventOut SFTime startTime
eventOut SFNode appearance_changed
field SFNode Fleck_rot Appearance { texture ImageTexture { url "images/fleck1.jpg" }}
field SFNode Fleck_blau Appearance { texture ImageTexture { url "images/fleck2.jpg" }}
field SFNode Fleck_ohne Appearance { texture ImageTexture { url "images/fleck.jpg" }}
url "vrmlscript: function rot (value, time){appearance_changed=Fleck_rot;startTime=time;}
function blau (value, time){appearance_changed=Fleck_blau;startTime=time;}
function ohne (value){appearance_changed=Fleck_ohne;}"}
DEF set_FleckL Script{
eventIn SFTime rot
eventIn SFTime blau
eventIn SFTime ohne
eventOut SFTime startTime
eventOut SFNode appearance_changed
field SFNode Fleck_rot Appearance { texture ImageTexture { url "images/fleck1.jpg" }}
field SFNode Fleck_blau Appearance { texture ImageTexture { url "images/fleck2.jpg" }}
field SFNode Fleck_ohne Appearance { texture ImageTexture { url "images/fleck.jpg" }}
url "vrmlscript:
function rot  (value, time){appearance_changed=Fleck_rot; startTime=time;}
function blau (value, time){appearance_changed=Fleck_blau; startTime=time;}
function ohne (value){appearance_changed=Fleck_ohne;}"}

DEF Rueck_RTS TimeSensor { cycleInterval 60 loop FALSE }
DEF Rueck_LTS TimeSensor { cycleInterval 60 loop FALSE }
DEF IgnoreHistoryTimer TimeSensor { cycleInterval 5 }

DEF Rueck Script {
eventIn SFBool triggerInR
eventIn SFBool triggerInL
eventOut SFTime startTimeR
eventOut SFTime startTimeL
field SFBool on TRUE
url "vrmlscript:
function triggerInR(value, time) {if (value == FALSE) startTimeR = time;}
function triggerInL(value, time) {if (value == FALSE) startTimeL = time;}"} 
#on = 0 ; else#on = 1 ; else 

DEF musicSwitchScript Script {
  eventIn SFString botselection
  eventIn SFTime selection0
  eventIn SFTime selection1
  eventIn SFTime selection2
  eventIn SFTime selection3
  eventIn SFBool description0
  eventIn SFBool description1
  eventIn SFBool description2
  eventIn SFBool description3
  eventIn SFBool ignoreHistory
  eventIn SFBool startHistory2
  field SFBool musicEnabled FALSE
  field MFString newurl [ "" ]
  field MFString param [ "" "" ]
  field MFString curselection [ "Current Title:", "" ]
  field MFString curdescription [ "" ]
  field MFString titles [ "Gimmie Shelter", "Baker Street", "Dixie", "Shine on you crazy diamond" ]
  eventOut SFBool startHistory1
  eventOut SFTime startHistoryTimer
  eventOut MFString selection
  eventOut MFString description 
  url "vrmlscript:
    function initialize() {
        startHistory1 = TRUE;
    }
    function startHistory2(val, time) {
        startHistoryTimer = time;
    }
    function ignoreHistory(val, time) {
      if (!val)
        musicEnabled = TRUE;
    }
    function botselection(val, time) {
      if (!musicEnabled)
        return;
      i = val.indexOf('http');
      k = val.indexOf('.mid');
      if (i > 0 && k > 0)
      {
        j = val.indexOf(' ', i);
        if (j > 0)
        {
          newurl[0] = '/cgi-bin/colonycity/cafe?ac=sound&SF=' + val.substring(i, j);
          curselection[1] = val.substring(j+1, val.length);
        }
        else
        {
          newurl[0] = '/cgi-bin/colonycity/cafe?ac=sound&SF=' + val.substring(i, val.length);
          curselection[1] = val.substring(i, val.length);
        }
        selection = curselection;
      }
      else
      {
        Browser.setDescription('Sorry, no valid URL of midi sound specified');
      }
    }             
    function selection0(val, time) {
      curselection[1] = titles[0];
      selection = curselection;
    }             
    function selection1(val, time) {
      curselection[1] = titles[1];
      selection = curselection;
    }             
    function selection2(val, time) {
      curselection[1] = titles[2];
      selection = curselection;
    }             
    function selection3(val, time) {
      curselection[1] = titles[3];
      selection = curselection;
    }             
    function description0(val, time) {
     if (val)
     {
       curdescription[0] = titles[0];
       description = curdescription;
     }
     else
     {
       curdescription[0] = '';
       description = curdescription;
     }
    }             
    function description1(val, time) {
     if (val)
     {
       curdescription[0] = titles[1];
       description = curdescription;
     }
     else
     {
       curdescription[0] = '';
       description = curdescription;
     }
    }             
    function description2(val, time) {
     if (val)
     {
       curdescription[0] = titles[2];
       description = curdescription;
     }
     else
     {
       curdescription[0] = '';
       description = curdescription;
     }
    }             
    function description3(val, time) {
     if (val)
     {
       curdescription[0] = titles[3];
       description = curdescription;
     }
     else
     {
       curdescription[0] = '';
       description = curdescription;
     }
    }             
  "
}
             
# ---------------------------------------------------------------------------
# ENTRANCE VOID GUARD (CTR reconstruction).
#
# Walking backward out of the entrance took a citizen over the threshold at
# about z -20, past the last authored floor polygon, and into free fall. Measured
# on the running world: safe ground reaches z -20.6, and the avatar is already
# falling by z -22.3. Of eight walked headings from the entry viewpoint only this
# one left the world.
#
# The strip outside the door was measured by walking it: ground runs from about
# x -20.6 to x +21.7 and ends between z -20.7 and z -22. So the guard is three
# thin pieces, not one. The back piece at z -21 stops the walk out. The two end
# pieces stop what the back piece alone produced: the citizen pressed against it
# and slid sideways the full width of the building until the ground ran out.
# Together with the authored door wall the three pieces close the strip. Six
# escape runs, including a forty second grind, now all stop inside.
#
# The pieces stand in the gap, outside every authored
# surface, so nothing visible and nothing authored changes: no new geometry the
# citizen can see, no edit to the floor, no edit to the entry viewpoint, and no
# edit to the Plaza door. The door sits nearer the citizen at about z -19.5, so
# it still takes the touch ray first and still works.
#
# Each piece is a Collision `proxy`, which is VRML97's own name for geometry that
# collides and is never drawn. A fully transparent Shape was tried first and the
# citizen walked straight through it: X_ITE drops a transparency 1 Shape before
# collision ever sees it. A proxy cannot be dropped that way and needs no
# Appearance at all, so there is nothing to render and nothing to look wrong.
# ---------------------------------------------------------------------------
DEF EntranceVoidGuard Group { children [
# back: stops the walk out of the doorway at z -21
Transform { translation 1 3 -21 children [
Collision { collide TRUE proxy Shape { geometry Box { size 52 10 0.4 } } children [] }
]},
# west end: stops the slide along the back guard off the x -20.6 edge
Transform { translation -20.8 3 -19.8 children [
Collision { collide TRUE proxy Shape { geometry Box { size 0.4 10 3.6 } } children [] }
]},
# east end: the same on the x +21.7 edge
Transform { translation 21.2 3 -19.8 children [
Collision { collide TRUE proxy Shape { geometry Box { size 0.4 10 3.6 } } children [] }
]}
]}

# ---------------------------------------------------------------------------
# JUKEBOX AUDIO (deferred).
#
# The four buttons historically loaded audio/audioN.htm, which embedded sN.mid
# in an HTML frame named "audio". CTR has no such frame and browsers no longer
# play MIDI, so that path stays disabled: no popup, no HTML frame, no MIDI
# request.
#
# The four historical MIDI files remain on disk in audio/ as source evidence
# only. Nothing in this world references them at runtime.
#
# A set of converted OGG renders was tried here and removed: the four clips
# eager-loaded about 14 MB on every world entry, and the replacement audio has
# not been approved. The jukebox is deliberately silent for now.
#
# The buttons keep their historical behaviour otherwise: pressing one still
# updates the title sign through musicSwitchScript, and the mute button keeps
# its historical geometry and TouchSensor as an inert control.
#
# To restore audio later: add one Sound/AudioClip per track plus a selector
# script, and route TouchTasteN.touchTime into it. Do not reintroduce the
# audioN.htm popup path.
# ---------------------------------------------------------------------------
DEF SloadPlace Script {
    field MFString newurl [ "" ]
    field MFString param [ "" "" ]
        eventIn SFBool loadPlaza
        eventIn SFBool describePlaza
        eventIn SFVec3f describe1Plaza
        url "vrmlscript:
    function initialize(){
      /* Historically this posted to the colonycity 'action' CGI endpoint to open
         the HTML action frame. That host and that frame are both gone, so the
         request is a guaranteed 404. The door below still works without it. */
    }
    function describePlaza(value,ts){
        if ( value )
            Browser.setDescription( 'Plaza' );
        else
            Browser.setDescription( '             ' );
    }
    function describe1Plaza(value,ts){
            Browser.setDescription( 'Go to Plaza' );
    }
        function loadPlaza (value, ts) {
      /* Historically: the TRUE edge muted the jukebox by loading a blank page
         into the HTML `audio` frame, and the FALSE edge left for the Plaza with
         `Browser.loadURL('../../enter/vrml/enter.wrl', 'target=_self')`. CTR has
         no `audio` frame, and `target=_self` would replace the whole SPA with a
         raw .wrl file. The Plaza is a current CTR route, so the exit keeps its
         historical destination through the same hash route post.wrl uses. */
      if ( !value )
        window.location.href = '/#/place/enter';
    }
        "
}
#        Browser.loadURL (newurl,param);
#        newurl[0] = '/cgi-bin/colonycity/enter?ac=actionfs&ID=0000000000000001';
#        param[0] = 'target=action';
#        param[1] = '';

DEF TPlaza TimeSensor {}
ROUTE TSPlaza.touchTime TO TPlaza.startTime
ROUTE TSPlaza1.touchTime TO TPlaza.startTime
ROUTE TPlaza.isActive  TO SloadPlace.loadPlaza
ROUTE TSPlaza.isOver TO SloadPlace.describePlaza
ROUTE TSPlaza1.isOver TO SloadPlace.describePlaza
ROUTE TSPlaza.hitPoint_changed TO SloadPlace.describe1Plaza
ROUTE TSPlaza1.hitPoint_changed TO SloadPlace.describe1Plaza

#Begin sound routes

# The title sign is driven off the same direct press, so the citizen who pressed
# the button sees the song name without waiting for a shared-event round trip.
ROUTE TouchTaste0.touchTime TO musicSwitchScript.selection0
ROUTE TouchTaste1.touchTime TO musicSwitchScript.selection1
ROUTE TouchTaste2.touchTime TO musicSwitchScript.selection2
ROUTE TouchTaste3.touchTime TO musicSwitchScript.selection3

ROUTE TouchTaste0.isOver TO musicSwitchScript.description0
ROUTE TouchTaste1.isOver TO musicSwitchScript.description1
ROUTE TouchTaste2.isOver TO musicSwitchScript.description2
ROUTE TouchTaste3.isOver TO musicSwitchScript.description3
ROUTE TouchTaste0.touchTime TO Taste0.set_time
ROUTE TouchTaste1.touchTime TO Taste1.set_time
ROUTE TouchTaste2.touchTime TO Taste2.set_time
ROUTE TouchTaste3.touchTime TO Taste3.set_time
ROUTE Taste0.time_changed TO musicSwitchScript.selection0
ROUTE Taste1.time_changed TO musicSwitchScript.selection1
ROUTE Taste2.time_changed TO musicSwitchScript.selection2
ROUTE Taste3.time_changed TO musicSwitchScript.selection3
ROUTE Botsound.string_changed TO musicSwitchScript.botselection
ROUTE musicSwitchScript.description TO TitleDescription.set_string
ROUTE musicSwitchScript.selection TO CurTitle.set_string
ROUTE musicSwitchScript.startHistory1 TO musicSwitchScript.startHistory2
ROUTE musicSwitchScript.startHistoryTimer TO IgnoreHistoryTimer.set_startTime
ROUTE IgnoreHistoryTimer.isActive TO musicSwitchScript.ignoreHistory

# unShared
#ROUTE Flasche_rot_links.touchTime TO Rueck_LTS.set_startTime
#ROUTE Flasche_rot_rechts.touchTime TO Rueck_RTS.set_startTime
#ROUTE Flasche_blau_links.touchTime TO Rueck_LTS.set_startTime
#ROUTE Flasche_blau_rechts.touchTime TO Rueck_RTS.set_startTime
#ROUTE Flasche_rot_links.touchTime TO set_FleckL.rot
#ROUTE Flasche_rot_rechts.touchTime TO set_FleckR.rot
#ROUTE Flasche_blau_links.touchTime TO set_FleckL.blau
#ROUTE Flasche_blau_rechts.touchTime TO set_FleckR.blau
ROUTE FlascheRL.translation_changed TO FlascheRLT.set_translation
ROUTE FlascheRR.translation_changed TO FlascheRRT.set_translation
ROUTE FlascheBL.translation_changed TO FlascheBLT.set_translation
ROUTE FlascheBR.translation_changed TO FlascheBRT.set_translation
ROUTE GlasRP.translation_changed TO GlasR.set_translation
ROUTE GlasLP.translation_changed TO GlasL.set_translation

# shared
ROUTE Flasche_rot_links.touchTime TO SharedTimerFRL.set_time
ROUTE SharedTimerFRL.time_changed TO set_FleckL.rot
ROUTE SharedTimerFRL.time_changed TO Rueck_LTS.set_startTime
ROUTE Flasche_rot_rechts.touchTime TO SharedTimerFRR.set_time
ROUTE SharedTimerFRR.time_changed TO set_FleckR.rot
ROUTE SharedTimerFRR.time_changed TO Rueck_RTS.set_startTime
ROUTE Flasche_blau_rechts.touchTime TO SharedTimerFBR.set_time
ROUTE SharedTimerFBR.time_changed TO set_FleckR.blau
ROUTE SharedTimerFBR.time_changed TO Rueck_RTS.set_startTime
ROUTE Flasche_blau_links.touchTime TO SharedTimerFBL.set_time
ROUTE SharedTimerFBL.time_changed TO set_FleckL.blau
ROUTE SharedTimerFBL.time_changed TO Rueck_LTS.set_startTime

# common
ROUTE set_FleckR.appearance_changed TO FleckL.set_appearance
ROUTE set_FleckL.appearance_changed TO FleckR.set_appearance
ROUTE set_FleckR.startTime TO Rueck_RTS.startTime
ROUTE set_FleckL.startTime TO Rueck_LTS.startTime
ROUTE Rueck_RTS.isActive TO Rueck.triggerInR
ROUTE Rueck_LTS.isActive TO Rueck.triggerInL
ROUTE Rueck.startTimeL TO set_FleckL.ohne
ROUTE Rueck.startTimeR TO set_FleckR.ohne

# PlaneSensor Shared
ROUTE FlascheRL.offset_changed TO SharedTranslationFRL.set_vec3f
ROUTE SharedTranslationFRL.vec3f_changed TO FlascheRLT.set_translation
ROUTE FlascheRR.offset_changed TO SharedTranslationFRR.set_vec3f
ROUTE SharedTranslationFRR.vec3f_changed TO FlascheRRT.set_translation
ROUTE FlascheBL.offset_changed TO SharedTranslationFBL.set_vec3f
ROUTE SharedTranslationFBL.vec3f_changed TO FlascheBLT.set_translation
ROUTE FlascheBR.offset_changed TO SharedTranslationFBR.set_vec3f
ROUTE SharedTranslationFBR.vec3f_changed TO FlascheBRT.set_translation
ROUTE GlasRP.offset_changed TO SharedTranslationGR.set_vec3f
ROUTE SharedTranslationGR.vec3f_changed TO GlasR.set_translation
ROUTE GlasLP.offset_changed TO SharedTranslationGL.set_vec3f
ROUTE SharedTranslationGL.vec3f_changed TO GlasL.set_translation

ROUTE Slot1.vrmlLoaded TO VrmlLoaded.set_bool
ROUTE Slot1.points TO SharedScore.set_int32
ROUTE NewScoreBack.string_changed TO Slot1.highscorelist

# Insert for banner
Transform {
translation  3.56 2 16
rotation 0 1 0 3.14159265 
children [
Transform {
rotation 0 1 0 .89
children [
                        
# MISSING_SOURCE_ASSET
#   historical target : ../../banners/3d/cafe_ban1.wrl
#   state            : not present in the recovered Le Cafe source, and not
#                      present anywhere in spa/assets. Every request for it
#                      returns 404.
#   why disabled     : an Inline that can never resolve is a guaranteed runtime
#                      404 on every world entry. The Transform that positioned
#                      the banner is kept verbatim above so the historical
#                      placement survives; only the request is removed.
#   do not           : invent banner geometry or art, or substitute a modern ad.
#                      Re-enable this Inline only if the real cafe_ban1.wrl and
#                      its textures are recovered.
# Inline {
# url "../../banners/3d/cafe_ban1.wrl"
# }
]
}
]
},
# end insert for banner
Transform{translation 18 3 -6 rotation 0 1 0 1.571
children[

DEF w_pop PopUp{
scrollbars "yes"
url"http://www.colonycity.com/cgi-bin/colonycity/place?ac=print&NID=morph&ITEMNID=weekly777812&tpl=event/morph/checkitem"
description ""
height 450
width 620 
status "no"
children [Inline{url"./tv/tv.wrl"}]
}]}
